<svg id="Layer_1" enable-background="new 0 0 256 256" height="512" viewBox="0 0 256 256" width="512" xmlns="http://www.w3.org/2000/svg"><g><g><g><g><g><g><path d="m227.104 200.685v-127c0-5.523-4.477-10-10-10h-178.208c-5.523 0-10 4.477-10 10v127z" fill="#58595b"/></g><g><path d="m221.213 64.576c.567 1.255.89 2.643.89 4.11v123c0 2.209-1.791 4-4 4h-189.207v5h198.208v-127c0-4.057-2.42-7.542-5.891-9.11z" fill="#414042"/></g><g><path d="m212.41 200.685v-113.523c0-2.761-2.239-5-5-5h-158.82c-2.761 0-5 2.239-5 5v113.523z" fill="#f1f2f2"/></g><g><path d="m99.5 90.162h-.91c-1.104 0-2-.896-2-2s.896-2 2-2h.91c1.104 0 2 .896 2 2s-.896 2-2 2zm-8.91 0h-41c-1.104 0-2-.896-2-2s.896-2 2-2h41c1.104 0 2 .896 2 2s-.895 2-2 2z" fill="#fff"/></g><g><path d="m207.409 82.162h-5v103.523c0 2.761-2.239 5-5 5h-153.818v10h168.819v-113.523c-.001-2.762-2.239-5-5.001-5z" fill="#e6e7e8"/></g><g><path d="m207.409 82.162v108.523c0 2.761-2.239 5-5 5h-158.818v5h168.819v-113.523c-.001-2.762-2.239-5-5.001-5z" fill="#d1d3d4"/></g><g><path d="m8 202.685v16.653c0 5.523 4.477 10 10 10h220c5.523 0 10-4.477 10-10v-16.653c0-1.105-.895-2-2-2h-236c-1.105 0-2 .895-2 2z" fill="#939598"/></g><g><path d="m243 200.685v13.653c0 5.523-4.477 10-10 10h-220c-1.466 0-2.855-.323-4.11-.89 1.569 3.471 5.053 5.89 9.11 5.89h220c5.523 0 10-4.477 10-10v-16.653c0-1.105-.895-2-2-2z" fill="#808285"/></g><g><path d="m88.169 200.685v5.454c0 2.761 2.239 5 5 5h69.662c2.761 0 5-2.239 5-5v-5.454z" fill="#414042"/></g></g></g></g></g><g><g><path d="m12.239 185.421h231.523c2.761 0 5-2.239 5-5v-78.819c0-2.761-2.239-5-5-5h-231.523c-2.761 0-5 2.239-5 5v78.819c0 2.761 2.238 5 5 5z" fill="#893add"/></g><g><path d="m243.761 96.602v78.819c0 2.761-2.239 5-5 5h-231.522c0 2.761 2.239 5 5 5h231.523c2.761 0 5-2.239 5-5v-78.819c-.001-2.761-2.239-5-5.001-5z" fill="#6c2bc1"/></g><g><g><path d="m95.912 157.678v-33.333c0-2.761 2.239-5 5-5h54.176c2.761 0 5 2.239 5 5v33.333c0 2.761-2.239 5-5 5h-54.176c-2.762 0-5-2.238-5-5z" fill="#b171f4"/></g><g><path d="m172.912 157.678v-33.333c0-2.761 2.239-5 5-5h54.176c2.761 0 5 2.239 5 5v33.333c0 2.761-2.239 5-5 5h-54.176c-2.762 0-5-2.238-5-5z" fill="#b171f4"/></g><g><path d="m18.912 157.678v-33.333c0-2.761 2.239-5 5-5h54.176c2.761 0 5 2.239 5 5v33.333c0 2.761-2.239 5-5 5h-54.176c-2.762 0-5-2.238-5-5z" fill="#b171f4"/></g></g><g><g><g><path d="m180.949 176.511v-5c0-1.105.895-2 2-2h10.103c1.105 0 2 .895 2 2v5c0 1.105-.895 2-2 2h-10.103c-1.105 0-2-.895-2-2z" fill="#b171f4"/></g><g><path d="m180.949 110.511v-5c0-1.105.895-2 2-2h10.103c1.105 0 2 .895 2 2v5c0 1.105-.895 2-2 2h-10.103c-1.105 0-2-.895-2-2z" fill="#b171f4"/></g></g><g><g><path d="m220.949 176.511v-5c0-1.105.895-2 2-2h10.103c1.105 0 2 .895 2 2v5c0 1.105-.895 2-2 2h-10.103c-1.105 0-2-.895-2-2z" fill="#b171f4"/></g><g><path d="m220.949 110.511v-5c0-1.105.895-2 2-2h10.103c1.105 0 2 .895 2 2v5c0 1.105-.895 2-2 2h-10.103c-1.105 0-2-.895-2-2z" fill="#b171f4"/></g></g><g><g><path d="m140.949 176.511v-5c0-1.105.895-2 2-2h10.103c1.105 0 2 .895 2 2v5c0 1.105-.895 2-2 2h-10.103c-1.105 0-2-.895-2-2z" fill="#b171f4"/></g><g><path d="m140.949 110.511v-5c0-1.105.895-2 2-2h10.103c1.105 0 2 .895 2 2v5c0 1.105-.895 2-2 2h-10.103c-1.105 0-2-.895-2-2z" fill="#b171f4"/></g></g><g><g><path d="m100.949 176.511v-5c0-1.105.895-2 2-2h10.103c1.105 0 2 .895 2 2v5c0 1.105-.895 2-2 2h-10.103c-1.105 0-2-.895-2-2z" fill="#b171f4"/></g><g><path d="m100.949 110.511v-5c0-1.105.895-2 2-2h10.103c1.105 0 2 .895 2 2v5c0 1.105-.895 2-2 2h-10.103c-1.105 0-2-.895-2-2z" fill="#b171f4"/></g></g><g><g><path d="m60.949 176.511v-5c0-1.105.895-2 2-2h10.103c1.105 0 2 .895 2 2v5c0 1.105-.895 2-2 2h-10.103c-1.105 0-2-.895-2-2z" fill="#b171f4"/></g><g><path d="m60.949 110.511v-5c0-1.105.895-2 2-2h10.103c1.105 0 2 .895 2 2v5c0 1.105-.895 2-2 2h-10.103c-1.105 0-2-.895-2-2z" fill="#b171f4"/></g></g><g><g><path d="m20.949 176.511v-5c0-1.105.895-2 2-2h10.103c1.105 0 2 .895 2 2v5c0 1.105-.895 2-2 2h-10.103c-1.105 0-2-.895-2-2z" fill="#b171f4"/></g><g><path d="m20.949 110.511v-5c0-1.105.895-2 2-2h10.103c1.105 0 2 .895 2 2v5c0 1.105-.895 2-2 2h-10.103c-1.105 0-2-.895-2-2z" fill="#b171f4"/></g></g></g></g><g><g><circle cx="128" cy="59.162" fill="#ffc91d" r="32.5"/></g><g><path d="m148.34 33.822c4.476 5.569 7.16 12.639 7.16 20.34 0 17.949-14.551 32.5-32.5 32.5-7.701 0-14.771-2.684-20.34-7.16 5.957 7.411 15.092 12.16 25.34 12.16 17.949 0 32.5-14.551 32.5-32.5 0-10.249-4.748-19.383-12.16-25.34z" fill="#ffa91a"/></g><g><path d="m117.5 73.415v-28.506c0-1.416 1.577-2.261 2.756-1.478l21.452 14.253c1.056.702 1.056 2.253 0 2.955l-21.452 14.253c-1.179.784-2.756-.061-2.756-1.477z" fill="#893add"/></g></g><g><g><path d="m222.946 38.304c3.517 2.031 4.861 6.438 3.076 10.086l-34.959 71.433-22.773-13.148 44.383-65.992c2.267-3.37 6.756-4.41 10.273-2.379z" fill="#f79219"/></g><g><path d="m222.946 38.304c-.487-.281-.993-.498-1.509-.663.588 1.838.494 3.891-.415 5.749l-34.017 69.509c-.509 1.041-1.793 1.432-2.796.853l-14.895-8.599-1.024 1.522 22.773 13.148 34.959-71.433c1.785-3.648.441-8.056-3.076-10.086z" fill="#ef7816"/></g><g><path d="m176.52 134.123 14.543-14.3-22.773-13.149-5.112 19.746z" fill="#f1f2f2"/></g><g><path d="m184.709 116.154-12.105 11.902c-.641.63-1.624.755-2.402.306l-6.549-3.781-.476 1.838 13.342 7.703 14.544-14.3z" fill="#e6e7e8"/></g><g><path d="m176.52 134.122-13.329-7.696c-1.543.629-7.745 4.828-9.259 10.048-1.88 6.484.257 14.578 1.534 18.443.277.838 1.417.926 1.831.147 1.016-1.912 2.72-4.612 4.759-5.843 3.333-2.012 8.615-1.062 12.085-4.571 3.017-3.051 2.604-9.071 2.445-10.588z" fill="#414042"/></g></g></g></svg>