<?xml version="1.0" encoding="utf-8"?>
<!-- Generator: Adobe Illustrator 25.2.0, SVG Export Plug-In . SVG Version: 6.00 Build 0)  -->
<svg version="1.1" id="Capa_1" xmlns="http://www.w3.org/2000/svg" xmlns:xlink="http://www.w3.org/1999/xlink" x="0px" y="0px"
	 viewBox="0 0 841.89 1190.55" style="enable-background:new 0 0 841.89 1190.55;" xml:space="preserve">
<style type="text/css">
	.st0{fill:#4D4E4F;stroke:#4D4E4F;stroke-miterlimit:10;}
	.st1{fill:#D3D3D5;}
	.st2{fill:#C5E3DD;}
	.st3{fill:#B1DACC;}
	.st4{fill:#1E1E1C;}
	.st5{fill:#030304;stroke:#1E1E1C;stroke-miterlimit:10;}
	.st6{fill:#E41B18;stroke:#E41B18;stroke-miterlimit:10;}
	.st7{fill:#D3D3D5;stroke:#1E1E1C;stroke-miterlimit:10;}
	.st8{fill:#2D0E0F;}
	.st9{fill:#F4991C;}
	.st10{fill:#141C31;}
	.st11{fill:#66420F;stroke:#1E1E1C;stroke-miterlimit:10;}
	.st12{fill:#A39517;stroke:#1E1E1C;stroke-miterlimit:10;}
	.st13{fill:#1E1E1C;stroke:#1E1E1C;stroke-miterlimit:10;}
	.st14{fill:#FFFFFF;stroke:#1E1E1C;stroke-miterlimit:10;}
</style>
<polygon id="BICEL" class="st0" points="109.15,407.18 711.72,407.18 716.92,824.99 109.15,824.99 "/>
<polygon id="PARTE_DE_ABAJO" class="st1" points="11.29,824.99 813.68,824.99 813.68,846.01 789.76,868.35 49.35,868.35 
	11.29,852.58 "/>
<rect id="PANTALLA" x="134.15" y="436.08" class="st2" width="555.58" height="357.38"/>
<polygon class="st3" points="134.15,436.08 134.15,793.46 689.74,436.08 "/>
<g>
	<ellipse class="st1" cx="418.16" cy="424.17" rx="105.59" ry="112.35"/>
	<g>
		<path class="st4" d="M521.9,422.49c-0.03,22.84-6.56,45.51-19.19,64.6c-11.85,17.91-28.87,32.35-48.82,40.43
			c-20.4,8.27-43.33,9.55-64.52,3.59c-20.29-5.71-38.21-17.78-51.11-34.36c-13.79-17.73-21.83-39.66-23.5-62.01
			c-1.72-23,3.27-46.4,14.6-66.52c10.59-18.81,26.59-34.54,45.96-44.19c19.69-9.8,42.36-12.89,63.94-8.63
			c20.62,4.07,39.8,14.74,53.86,30.29c14.87,16.45,24.29,37.58,27.51,59.45C521.47,410.88,521.89,416.68,521.9,422.49
			c0,0.69,1.14,1.53,1.61,1.95c0.43,0.39,0.89,0.79,1.38,1.11c0.06,0.04,0.72,0.42,0.72,0.3c-0.02-11.82-1.7-23.61-5.16-34.92
			c-3.31-10.83-8.22-21.18-14.52-30.59c-6.37-9.51-14.18-18.06-22.97-25.38c-8.54-7.11-18.05-13.01-28.33-17.25
			c-10.29-4.25-21.28-6.77-32.4-7.41c-11.15-0.64-22.4,0.58-33.14,3.62c-10.55,2.99-20.58,7.73-29.65,13.9
			c-9.09,6.2-17.19,13.82-24.01,22.45c-6.98,8.84-12.6,18.72-16.69,29.21c-4.26,10.93-6.84,22.49-7.7,34.18
			c-0.87,11.9,0,23.94,2.66,35.58c2.55,11.16,6.74,21.9,12.41,31.84c5.59,9.8,12.65,18.75,20.8,26.54
			c8.21,7.84,17.44,14.63,27.59,19.74c9.85,4.96,20.49,8.35,31.41,9.88c11.11,1.56,22.48,1.25,33.48-0.93
			c10.8-2.13,21.22-6.07,30.76-11.56c9.51-5.47,18.13-12.45,25.53-20.54c7.55-8.25,13.82-17.64,18.62-27.73
			c4.97-10.47,8.35-21.68,10.03-33.14c0.85-5.79,1.26-11.64,1.27-17.49c0-0.69-1.14-1.53-1.61-1.95
			C523.84,423.75,521.9,422.43,521.9,422.49z"/>
	</g>
</g>
<g>
	<ellipse class="st1" cx="717.09" cy="603.6" rx="115.91" ry="110.24"/>
	<g>
		<path class="st4" d="M830.89,602.72c-0.02,11.42-1.88,22.76-5.57,33.57c-3.59,10.52-8.84,20.43-15.48,29.34
			c-6.68,8.96-14.72,16.89-23.71,23.51c-9.17,6.75-19.39,12.09-30.12,15.88c-11.19,3.96-22.94,6.19-34.8,6.69
			c-12.02,0.51-24.07-0.77-35.7-3.84c-10.97-2.89-21.53-7.42-31.17-13.4c-9.34-5.79-17.87-12.95-25.08-21.22
			c-7.25-8.32-13.2-17.71-17.59-27.84c-4.44-10.25-7.14-21.29-8.04-32.42c-0.92-11.47,0.03-23.06,2.88-34.21
			c2.76-10.79,7.23-21.14,13.21-30.54c5.99-9.4,13.41-17.87,21.89-25.1c8.61-7.34,18.33-13.36,28.7-17.89
			c10.75-4.69,22.16-7.76,33.81-9.1c12.02-1.38,24.23-0.99,36.12,1.24c11.41,2.14,22.5,5.96,32.78,11.37
			c9.81,5.17,18.8,11.77,26.67,19.56c7.72,7.65,14.32,16.55,19.39,26.22c5.15,9.82,8.75,20.49,10.5,31.44
			C830.45,591.55,830.88,597.13,830.89,602.72c0,1.17,1.17,2.28,2.17,2.69c0.87,0.36,2.05,0.25,2.05-0.93
			c-0.02-11.76-1.95-23.52-5.76-34.65c-3.75-10.96-9.26-21.28-16.19-30.57c-6.95-9.32-15.34-17.52-24.7-24.41
			c-9.48-6.98-20.05-12.55-31.16-16.47c-11.62-4.1-23.79-6.41-36.1-6.93c-12.33-0.52-24.69,0.83-36.63,3.97
			c-11.41,3-22.37,7.7-32.39,13.94c-9.78,6.09-18.69,13.58-26.26,22.27c-7.5,8.6-13.68,18.38-18.2,28.86
			c-4.59,10.64-7.37,21.99-8.32,33.54c-0.97,11.83,0.07,23.8,3.01,35.3c2.85,11.15,7.53,21.85,13.72,31.54
			c6.23,9.75,13.9,18.57,22.72,26.07c9.01,7.66,19.14,13.98,29.98,18.71c11.09,4.84,22.93,8.01,34.95,9.38
			c12.4,1.41,25.01,1.01,37.28-1.33c11.68-2.22,23.02-6.11,33.55-11.65c10.24-5.38,19.71-12.28,27.93-20.42
			c8.12-8.04,14.99-17.31,20.31-27.43c5.33-10.13,9.03-21.12,10.85-32.42c0.92-5.72,1.39-11.5,1.4-17.3
			C835.12,602.62,830.9,600.16,830.89,602.72z"/>
	</g>
</g>
<g>
	<ellipse class="st1" cx="426.08" cy="816.29" rx="122.86" ry="113.81"/>
	<g>
		<path class="st4" d="M546.83,814.95c-0.02,11.81-1.97,23.58-5.83,34.75c-3.79,10.97-9.38,21.29-16.38,30.54
			c-7.05,9.31-15.52,17.52-24.96,24.37c-9.81,7.12-20.68,12.77-32.12,16.77c-11.86,4.15-24.31,6.54-36.85,7.15
			c-12.79,0.62-25.66-0.58-38.1-3.66c-11.63-2.88-22.89-7.4-33.17-13.57c-9.77-5.87-18.66-13.24-26.24-21.75
			c-7.73-8.69-14.13-18.53-18.81-29.18c-4.7-10.7-7.65-22.16-8.64-33.81c-1.02-11.91,0-23.99,3-35.56c2.91-11.25,7.69-22,14-31.76
			c6.31-9.76,14.13-18.52,23.03-25.99c9.21-7.73,19.57-14.08,30.61-18.83c11.39-4.9,23.49-8.12,35.8-9.59
			c12.78-1.53,25.81-1.22,38.49,1c12.09,2.11,23.86,5.93,34.83,11.45c10.16,5.12,19.51,11.78,27.68,19.69
			c8.35,8.08,15.48,17.44,20.96,27.68c5.48,10.24,9.31,21.35,11.24,32.81C546.33,803.24,546.82,809.1,546.83,814.95
			c0,0.73,1.3,1.43,1.84,1.77c0.14,0.09,2.38,1.24,2.38,0.91c-0.02-12.04-2.01-24.01-5.99-35.37c-3.91-11.14-9.67-21.61-16.86-30.97
			c-7.39-9.62-16.29-18.05-26.14-25.11c-10.28-7.37-21.6-13.33-33.53-17.54c-12.17-4.3-24.94-6.79-37.84-7.42
			c-13.06-0.64-26.2,0.63-38.88,3.82c-12,3.02-23.57,7.77-34.2,14.11c-10.33,6.16-19.77,13.82-27.84,22.74
			c-7.93,8.77-14.53,18.75-19.35,29.56c-4.88,10.92-7.92,22.65-8.92,34.57c-1.01,12.07,0.02,24.31,3.1,36.03
			c3,11.45,7.94,22.32,14.42,32.22c6.57,10.03,14.74,18.97,23.97,26.61c9.74,8.06,20.66,14.7,32.26,19.73
			c11.66,5.06,24.04,8.4,36.66,9.91c13.09,1.57,26.41,1.24,39.4-1.06c12.32-2.18,24.31-6.15,35.48-11.78
			c10.82-5.44,20.84-12.46,29.6-20.82c8.57-8.18,15.92-17.66,21.58-28.07c5.68-10.44,9.65-21.8,11.62-33.52
			c0.98-5.83,1.46-11.74,1.47-17.65c0-0.73-1.31-1.43-1.84-1.77C549.07,815.78,546.83,814.62,546.83,814.95z"/>
	</g>
</g>
<g>
	<ellipse class="st1" cx="130.24" cy="621.22" rx="109.23" ry="116.75"/>
	<g>
		<path class="st4" d="M237.75,619.53c-0.02,12.15-1.74,24.29-5.27,35.92c-3.34,10.99-8.24,21.49-14.56,31.08
			c-6.17,9.37-13.69,17.84-22.32,25.02c-8.52,7.09-18.12,12.9-28.41,17.06c-10.46,4.23-21.6,6.72-32.87,7.33
			c-11.41,0.62-22.91-0.66-33.9-3.81c-10.61-3.03-20.73-7.81-29.84-14.03c-8.93-6.1-16.85-13.54-23.48-22.04
			c-6.93-8.88-12.42-18.88-16.43-29.39c-4.24-11.12-6.78-22.84-7.63-34.7c-0.87-12.18,0.02-24.5,2.7-36.42
			c2.57-11.42,6.8-22.46,12.55-32.65c5.51-9.77,12.42-18.77,20.51-26.55c7.99-7.7,17.13-14.21,27.07-19.16
			c10.07-5.01,20.94-8.39,32.09-9.89c11.32-1.52,22.9-1.16,34.1,1.1c10.95,2.2,21.49,6.22,31.17,11.79
			c9.38,5.4,17.94,12.31,25.17,20.31c7.37,8.15,13.46,17.52,18.09,27.5c4.97,10.71,8.34,22.14,10,33.84
			C237.33,607.68,237.74,613.6,237.75,619.53c0,0.89,1.2,1.97,1.78,2.54c0.15,0.15,1.67,1.48,1.67,0.85
			c-0.02-12.31-1.81-24.57-5.39-36.35c-3.46-11.39-8.62-22.24-15.2-32.15c-6.54-9.85-14.51-18.82-23.58-26.41
			c-8.74-7.31-18.54-13.37-29.1-17.68c-10.69-4.36-22.06-6.96-33.6-7.58c-11.58-0.62-23.25,0.7-34.39,3.93
			c-10.88,3.15-21.21,8.11-30.53,14.53c-9.41,6.49-17.78,14.47-24.81,23.48c-7.17,9.2-12.94,19.47-17.12,30.35
			c-4.34,11.29-6.98,23.22-7.86,35.28c-0.91,12.47,0.03,25.09,2.84,37.27c2.67,11.57,7,22.74,12.86,33.07
			c5.86,10.32,13.22,19.8,21.75,28.05c8.31,8.03,17.75,14.89,28.08,20.07c10.18,5.11,21.19,8.57,32.48,10.12
			c11.54,1.59,23.34,1.2,34.76-1.11c11.19-2.27,21.97-6.43,31.83-12.18c9.79-5.72,18.66-13,26.26-21.41
			c7.76-8.59,14.21-18.35,19.12-28.82c5.1-10.87,8.56-22.5,10.29-34.38c0.87-5.98,1.29-12.02,1.3-18.06c0-0.89-1.2-1.97-1.78-2.54
			C239.26,620.23,237.75,618.9,237.75,619.53z"/>
	</g>
</g>
<polygon class="st5" points="397.61,403.61 397.61,415.97 371.7,423.97 397.61,432.23 397.61,444.53 350.42,429.52 350.42,418.75 
	"/>
<polygon class="st6" points="392.98,408.24 392.98,413 363.37,423.04 363.37,425.89 392.98,436.08 392.98,440.16 355.97,426.75 
	355.97,421.13 "/>
<polygon class="st7" points="429.07,398.99 434.36,398.99 413.03,449.09 407.79,449.09 "/>
<polygon class="st5" points="402.24,451.73 415.92,451.73 439.25,396.21 425.83,396.21 "/>
<polygon class="st5" points="443.08,403.61 443.08,415.77 469.45,424.07 442.95,433.22 442.95,444.53 490.14,428.6 490.14,417.65 
	"/>
<polygon class="st6" points="447.84,408.24 447.84,413 477.18,422.12 477.18,425.82 447.84,435.21 447.84,440.16 485.51,426.75 
	485.51,421.13 "/>
<polygon class="st6" points="429.07,398.99 434.36,398.99 413.03,449.09 407.79,449.09 "/>
<path class="st8" d="M748.21,649.28h-54.03c-12.27,0-22.21-9.95-22.21-22.21v-43c0-9.47,7.68-17.14,17.14-17.14h59.11
	c8.48,0,15.36,6.88,15.36,15.36v51.64C763.57,642.41,756.69,649.28,748.21,649.28z"/>
<polygon class="st9" points="695.29,585.1 707.98,585.1 724.7,629.85 713.73,629.85 710,618.95 693.24,618.75 689.54,629.85 
	679.63,629.85 "/>
<polygon class="st8" points="702.17,592.84 696.02,609.49 707.78,609.49 "/>
<rect x="732.11" y="596.54" class="st9" width="9.79" height="33.31"/>
<circle class="st9" cx="736.27" cy="584.97" r="5.09"/>
<path class="st10" d="M748.76,582.66"/>
<path class="st10" d="M773.99,600.83"/>
<path class="st10" d="M795.03,580.42"/>
<path class="st11" d="M391.59,774.2v-19.27l57.37-0.17l0.61,19.43c-2.98,0-5.96,0-8.94,0c0-3.7,0-7.4,0-11.1
	c-13.26,0-26.53,0-39.79,0c-0.07,3.7-0.13,7.4-0.2,11.1H391.59z"/>
<polygon class="st11" points="340.7,774.2 502.26,774.2 502.63,876.91 340.7,876.91 "/>
<polygon class="st12" points="402.7,830.64 340.7,830.64 340.87,820.07 402.7,820.07 "/>
<polygon class="st12" points="402.7,811.74 440.5,811.74 440.61,830.64 440.64,834.34 421.48,846.67 402.7,835.24 "/>
<polygon class="st12" points="502.63,830.29 440.64,830.29 440.8,819.72 502.63,819.72 "/>
<polygon class="st11" points="412.49,820.07 431.58,820.07 431.84,829.25 421.67,837.32 412.41,830.18 "/>
<circle class="st13" cx="89.66" cy="642.37" r="27.76"/>
<path class="st13" d="M67.98,670.56c2.71,1.27,5.82,2.44,9.32,3.3c15.42,3.82,28.93-0.57,35.52-3.3c2.42,5.61,4.82,12.85,5.99,21.47
	c2.65,19.51-2.45,35.36-5.93,43.76c-7.59-1.25-17.76-3.75-28.81-9.08c-7.68-3.7-13.87-7.85-18.64-11.56
	c-1.75-10.68-2.28-23.72,0.85-37.98C66.79,674.88,67.36,672.68,67.98,670.56z"/>
<circle class="st13" cx="158.13" cy="642.37" r="27.76"/>
<path class="st13" d="M134.48,669.9c2.71,1.27,5.82,2.44,9.32,3.3c15.42,3.82,28.93-0.57,35.52-3.3c2.24,6,4.42,13.2,5.99,21.47
	c2.09,11.03,2.49,20.82,2.25,28.7c-9.03,6.48-17.35,10.03-23.13,12.03c-6.9,2.38-12.51,3.35-14.8,3.7
	c-6.11,0.94-11.48,1.08-15.73,0.93c-4.18-17.12-6.16-37.91-1.11-60.21C133.3,674.25,133.87,672.05,134.48,669.9z"/>
<path class="st14" d="M188.49,559.06c0,18.4-27.96,33.31-62.46,33.31c-11.69,0-22.63-1.71-31.99-4.69
	c-18.25-5.81-30.47-16.45-30.47-28.62c0-18.4,27.96-33.31,62.46-33.31S188.49,540.67,188.49,559.06z"/>
<polygon class="st14" points="87.63,601.63 94.05,587.68 104.48,590.34 "/>
</svg>
