<?xml version="1.0" encoding="utf-8"?>
<!-- Generator: Adobe Illustrator 25.2.0, SVG Export Plug-In . SVG Version: 6.00 Build 0)  -->
<svg version="1.1" id="Capa_1" xmlns="http://www.w3.org/2000/svg" xmlns:xlink="http://www.w3.org/1999/xlink" x="0px" y="0px"
	 viewBox="0 0 841.89 1190.55" style="enable-background:new 0 0 841.89 1190.55;" xml:space="preserve">
<style type="text/css">
	.st0{fill:#541E0F;}
	.st1{fill:#F1AE7B;}
	.st2{fill:#0D1C21;}
	.st3{fill:#23414E;}
	.st4{fill:#294653;}
	.st5{fill:#FBCB4D;}
	.st6{fill:#FACC49;}
	.st7{fill:#F6AC31;}
</style>
<polygon class="st0" points="205.17,772.13 640.77,765.86 640.77,1001.96 204.22,1001.96 "/>
<path class="st1" d="M478.69,960.32c-18.1,5.09-45.94,9.9-78.16,3.24c-9.32-1.93-17.73-4.55-25.17-7.43
	c-18.62-12.89-24.29-16.77-24.31-16.73c-0.05,0.08,24.33,16.7,24.31,16.73c-0.02,0.03-40.54-20.02-74.96-58.55
	c-2.45-2.74-12.48-15.04-32.42-39.73c-9.66-11.96-14.57-18.1-20.26-27.18c-7.12-11.35-12.35-22.09-16.21-31.36
	c-1.84-0.11-12.75-0.92-20.26-10.46c-5.3-6.73-5.96-14.07-6.08-16.73c-0.48-1.9-3.37-14.15,4.05-25.09
	c4.62-6.8,10.86-9.63,13.53-10.65c33.73-59.95,67.46-119.9,101.19-179.85l97.01,21.13l199.56-46l-4.02,204.77
	c1.84-0.4,4.75-0.73,8.07,0.15c7.82,2.06,11.49,9.11,12.16,10.46c1.19,1.67,2.98,4.62,3.91,8.7c1,4.39,0.55,8.06,0.14,10.12
	c0,3.48,0,6.97,0,10.45c0,0,0,0,0,0c-0.94,3.32-3.34,6.06-5.57,7.91c-2.02,1.67-4.56,2.55-4.56,2.54c0-0.01,0.71-0.38,4.05-2.09
	c-1.79,1.78-9.52,9.09-20.26,8.36c-3.27-0.22-6.02-1.13-8.1-2.09c-1.09,5.35-2.42,10.94-4.05,16.73
	c-4.05,14.38-9.07,26.95-14.18,37.64c-13.99,29.26-20.16,44.3-22.29,48.09C559.08,905.42,538.52,936.2,478.69,960.32z"/>
<path class="st2" d="M211.25,565.12L26.89,460.57l394.06-226.13l390.01,224.04c-38.16,23.03-76.65,46.03-115.48,69
	c-21.37,12.64-42.69,25.19-63.96,37.64c-3.67-11.15-7.33-22.3-11-33.46l10.13-4.18l-4.05-117.1l-164.11-31.37H359.15l-145.87,33.46
	l-2.03,119.19l8.1,2.09L211.25,565.12z"/>
<polygon class="st3" points="420.94,577.67 620.51,531.67 630.64,527.49 626.58,410.39 462.48,379.02 359.15,379.02 213.28,412.48 
	211.25,531.67 219.36,533.76 "/>
<path class="st4" d="M26.89,460.57v-22.7l394.06-224.93c81.1,46.66,162.21,93.33,243.31,139.99
	c50.25,28.91,100.5,57.82,150.75,86.73c-1.35,6.27-2.7,12.55-4.05,18.82L420.94,234.45L26.89,460.57z"/>
<path class="st4" d="M689.39,351.84"/>
<path class="st4" d="M695.47,709.4"/>
<path class="st5" d="M648.67,343.96c2.88-2.91,9.85-9.1,20.46-10.94c4.85-0.84,9.06-0.53,12.16,0c4.69-0.33,11.84-0.06,18.23,4.18
	c14.07,9.33,15.03,31.63,15.34,41.82c1.04,34.55,1.51,162.53,0,336.65h-16.5l-2.89-344.79c0,2.02,0,4.03,0,6.05
	c1.7-12.94-4.89-24.27-14.18-27.18c-8.17-2.56-15.63,2.24-17.03,3.18C659.06,349.94,653.87,346.95,648.67,343.96z"/>
<path class="st6" d="M716.67,884.15c-7.6-8.39-17.71-21.66-25.25-40.28c-4.23-10.44-6.67-20.13-8.1-28.2
	c-1.74-4.77-3.33-10.6-4.05-17.35c-2.38-22.08,5.94-39.58,10.13-47.1c6.08,1.96,12.16,3.92,18.23,5.89l18.52-5.89
	c2.58,3.59,10.3,15.3,9.84,31.92c-0.3,10.72-3.87,18.78-6.08,22.93c-4.33,9.27-9.48,22.84-12.16,39.97
	C715.37,861.31,715.72,874.48,716.67,884.15z"/>
<ellipse class="st7" cx="707.63" cy="735.54" rx="28.36" ry="26.14"/>
<path class="st0" d="M631.49,565.12c2.16,6.95,3.22,10.44,3.18,10.45c-0.08,0.03-4.81-14.6-14.18-43.9
	c-65.84,15.18-131.69,30.35-197.53,45.53l-203.61-43.44c-1.42,3.09-2.82,6.57-4.05,10.45c-2.5,7.85-3.6,15.03-4.05,20.91
	c-0.68,60.63-1.35,121.26-2.03,181.89c0.31-1.09,1.68-5.48,6.08-8.36c4.52-2.96,9.07-2.28,10.13-2.09c0,7.37,0,14.73,0,22.1
	c1.07,0.16,6.89,0.89,12.16-3.29c4.85-3.85,5.87-9.22,6.08-10.45c-0.37-7.78-0.01-17.03,2.03-27.18c0.59-2.94,1.28-5.73,2.03-8.36
	c0.97-2.52,2.77-6.49,6.08-10.45c2.77-3.32,5.67-5.54,7.71-6.89c0.1-0.07,2.42-1.47,2.42-1.47c14.66-0.77,32.07-3.51,50.65-10.45
	c65.25-24.38,96.75-82.66,106.36-102.44c6.48,13.91,45.88,95.44,120.54,106.62c9.76,1.46,21.31,1.9,34.44,0
	c20.24,6.55,27.51,15.76,30.39,23c4.33,10.88,0.8,22.48,8.68,28.22c4.68,3.41,8.54,0.92,13.6,5.23
	c7.36,6.26,10.06,15.22,10.15,16.76c0.08,1.42-0.06-36.6-2.04-167.29"/>
</svg>
