<?xml version="1.0" encoding="utf-8"?>
<!-- Generator: Adobe Illustrator 25.2.0, SVG Export Plug-In . SVG Version: 6.00 Build 0)  -->
<svg version="1.1" id="Capa_1" xmlns="http://www.w3.org/2000/svg" xmlns:xlink="http://www.w3.org/1999/xlink" x="0px" y="0px"
	 viewBox="0 0 841.89 1190.55" style="enable-background:new 0 0 841.89 1190.55;" xml:space="preserve">
<style type="text/css">
	.st0{opacity:0.91;fill:none;}
	.st1{opacity:0.91;fill:#F8E6EF;}
	.st2{opacity:0.91;fill:#FBE1E9;}
	.st3{opacity:0.91;fill:#FDECF3;}
	.st4{opacity:0.91;fill:#B08F96;}
	.st5{opacity:0.91;fill:#5E353D;}
	.st6{opacity:0.91;fill:#572E31;}
	.st7{opacity:0.91;fill:#54292B;}
	.st8{opacity:0.91;fill:#98737A;}
	.st9{opacity:0.91;fill:#86615A;}
	.st10{opacity:0.91;fill:#74514D;}
	.st11{opacity:0.91;fill:#EAD0D7;}
	.st12{opacity:0.91;fill:#90706D;}
	.st13{opacity:0.91;fill:#896C6E;}
	.st14{opacity:0.91;fill:#EED7DF;}
	.st15{opacity:0.91;fill:#EED9E0;}
	.st16{opacity:0.91;fill:#F9E9F3;}
	.st17{opacity:0.91;fill:#FCE8EE;}
	.st18{opacity:0.91;fill:#EFD1D8;}
	.st19{opacity:0.91;fill:#C9A8AD;}
	.st20{opacity:0.91;fill:#C3A3A9;}
	.st21{opacity:0.91;fill:#F4D7D7;}
	.st22{opacity:0.91;fill:#CDABAA;}
	.st23{opacity:0.91;fill:#CCADAC;}
	.st24{opacity:0.91;fill:#DFC9CE;}
	.st25{opacity:0.91;fill:#DDC6CB;}
	.st26{opacity:0.91;fill:#D4BDBD;}
	.st27{opacity:0.91;fill:#CCB7B6;}
	.st28{opacity:0.91;fill:#F0D0D2;}
	.st29{opacity:0.91;fill:#DFE6F2;}
	.st30{opacity:0.91;fill:#B2A6AE;}
	.st31{opacity:0.91;fill:#A7A0A8;}
	.st32{opacity:0.91;fill:#5A3B2D;}
	.st33{opacity:0.91;fill:#CCB1B6;}
	.st34{opacity:0.91;fill:#FDFEFF;}
	.st35{opacity:0.91;fill:#121422;}
	.st36{opacity:0.91;fill:#161725;}
	.st37{opacity:0.91;fill:#1D1A29;}
	.st38{opacity:0.91;fill:#191827;}
	.st39{opacity:0.91;fill:#2B1B23;}
	.st40{opacity:0.91;fill:#120C18;}
	.st41{opacity:0.91;fill:#11090D;}
	.st42{opacity:0.91;fill:#1C1016;}
	.st43{opacity:0.91;fill:#160E12;}
	.st44{opacity:0.91;fill:#1D1418;}
	.st45{opacity:0.91;fill:#AA9C9D;}
	.st46{opacity:0.91;fill:#9D8C92;}
	.st47{opacity:0.91;fill:#AA989E;}
	.st48{opacity:0.91;fill:#A29FAB;}
	.st49{opacity:0.91;fill:#C2B8BF;}
	.st50{opacity:0.91;fill:#948C95;}
	.st51{opacity:0.91;fill:#A08588;}
	.st52{opacity:0.91;fill:#957D7E;}
	.st53{opacity:0.91;fill:#967779;}
	.st54{opacity:0.91;fill:#937271;}
	.st55{opacity:0.91;fill:#A58382;}
	.st56{opacity:0.91;fill:#C7A5A4;}
	.st57{opacity:0.91;fill:#CBAAA9;}
	.st58{opacity:0.91;fill:#C9A8AA;}
	.st59{opacity:0.91;fill:#987675;}
	.st60{opacity:0.91;fill:#BD9D9E;}
	.st61{opacity:0.91;fill:#595A66;}
	.st62{opacity:0.91;fill:#5C5E6A;}
	.st63{opacity:0.91;fill:#5D5F6A;}
	.st64{opacity:0.91;fill:#61616B;}
	.st65{opacity:0.91;fill:#6B5E67;}
	.st66{opacity:0.91;fill:#8A8E9C;}
	.st67{opacity:0.91;fill:#9499A4;}
	.st68{opacity:0.91;fill:#82828E;}
	.st69{opacity:0.91;fill:#74666E;}
	.st70{opacity:0.91;fill:#8C7175;}
	.st71{opacity:0.91;fill:#937275;}
	.st72{opacity:0.91;fill:#A38181;}
	.st73{opacity:0.91;fill:#D8BCC0;}
	.st74{opacity:0.91;fill:#A28F95;}
	.st75{opacity:0.91;fill:#BFA4AC;}
	.st76{opacity:0.91;fill:#A99195;}
	.st77{opacity:0.91;fill:#AC9098;}
	.st78{opacity:0.91;fill:#A58287;}
	.st79{opacity:0.91;fill:#140A0D;}
	.st80{opacity:0.91;fill:#23171B;}
	.st81{opacity:0.91;fill:#72676A;}
	.st82{opacity:0.91;fill:#473D40;}
	.st83{opacity:0.91;fill:#3B3136;}
	.st84{opacity:0.91;fill:#4F4244;}
	.st85{opacity:0.91;fill:#AE9A9B;}
	.st86{opacity:0.91;fill:#836F70;}
	.st87{opacity:0.91;fill:#A38C8F;}
	.st88{opacity:0.91;fill:#B9A4A5;}
	.st89{opacity:0.91;fill:#958180;}
	.st90{opacity:0.91;fill:#B6A2A1;}
	.st91{opacity:0.91;fill:#BEA6A8;}
	.st92{opacity:0.91;fill:#CEB1B8;}
	.st93{opacity:0.91;fill:#B1959C;}
	.st94{opacity:0.91;fill:#DDC1C1;}
	.st95{opacity:0.91;fill:#DEC1C3;}
	.st96{opacity:0.91;fill:#CBADB6;}
	.st97{opacity:0.91;fill:#FBE2E9;}
	.st98{opacity:0.91;fill:#F0D0D5;}
	.st99{opacity:0.91;fill:#E9CECE;}
	.st100{opacity:0.91;fill:#857474;}
	.st101{opacity:0.91;fill:#EAD4D3;}
	.st102{opacity:0.91;fill:#E9D1D1;}
	.st103{opacity:0.91;fill:#FBE2E8;}
	.st104{opacity:0.91;fill:#F1DCDF;}
	.st105{opacity:0.91;fill:#F4DDE3;}
	.st106{opacity:0.91;fill:#FCE5EB;}
	.st107{opacity:0.91;fill:#F8DDE3;}
	.st108{opacity:0.91;fill:#FCE4EB;}
	.st109{opacity:0.91;fill:#F6DEE1;}
	.st110{opacity:0.91;fill:#F8DFE1;}
	.st111{opacity:0.91;fill:#DEC3C5;}
	.st112{opacity:0.91;fill:#EBC7D3;}
	.st113{opacity:0.91;fill:#F4D7E1;}
	.st114{opacity:0.91;fill:#F6D6E2;}
	.st115{opacity:0.91;fill:#FCE3E9;}
	.st116{opacity:0.91;fill:#F6DDE5;}
	.st117{opacity:0.91;fill:#E4C8CA;}
	.st118{opacity:0.91;fill:#E7CDD0;}
	.st119{opacity:0.91;fill:#EED5D5;}
	.st120{opacity:0.91;fill:#EFD6DA;}
	.st121{opacity:0.91;fill:#F4DADE;}
	.st122{opacity:0.91;fill:#EAD4D8;}
	.st123{opacity:0.91;fill:#E8C8D3;}
	.st124{opacity:0.91;fill:#E0C1CB;}
	.st125{opacity:0.91;fill:#BC9DA2;}
	.st126{opacity:0.91;fill:#E8CAD4;}
	.st127{opacity:0.91;fill:#957577;}
	.st128{opacity:0.91;fill:#B59196;}
	.st129{opacity:0.91;fill:#845F5E;}
	.st130{opacity:0.91;fill:#916F6E;}
	.st131{opacity:0.91;fill:#F1DADD;}
	.st132{opacity:0.91;fill:#EBD7DA;}
	.st133{opacity:0.91;fill:#F5DBDF;}
	.st134{opacity:0.91;fill:#F6DDE1;}
	.st135{opacity:0.91;fill:#F1DADF;}
	.st136{opacity:0.91;fill:#F6DCE2;}
	.st137{opacity:0.91;fill:#EDD1DB;}
	.st138{opacity:0.91;fill:#D4B8BD;}
	.st139{opacity:0.91;fill:#C9A9AF;}
	.st140{opacity:0.91;fill:#B59496;}
	.st141{opacity:0.91;fill:#714B4B;}
	.st142{opacity:0.91;fill:#845D5C;}
	.st143{opacity:0.91;fill:#502928;}
	.st144{opacity:0.91;fill:#69403E;}
	.st145{opacity:0.91;fill:#A38382;}
	.st146{opacity:0.91;fill:#825A59;}
	.st147{opacity:0.91;fill:#7E5754;}
	.st148{opacity:0.91;fill:#704A48;}
	.st149{opacity:0.91;fill:#744540;}
	.st150{opacity:0.91;fill:#7A5047;}
	.st151{opacity:0.91;fill:#80564E;}
	.st152{opacity:0.91;fill:#78524E;}
	.st153{opacity:0.91;fill:#744A47;}
	.st154{opacity:0.91;fill:#794E4B;}
	.st155{opacity:0.91;fill:#784D48;}
	.st156{opacity:0.91;fill:#916D67;}
	.st157{opacity:0.91;fill:#58312F;}
	.st158{opacity:0.91;fill:#683C39;}
	.st159{opacity:0.91;fill:#764E4C;}
	.st160{opacity:0.91;fill:#754947;}
	.st161{opacity:0.91;fill:#916B67;}
	.st162{opacity:0.91;fill:#937066;}
	.st163{opacity:0.91;fill:#8B6965;}
	.st164{opacity:0.91;fill:#936C6A;}
	.st165{opacity:0.91;fill:#94726A;}
	.st166{opacity:0.91;fill:#987671;}
	.st167{opacity:0.91;fill:#926C69;}
	.st168{opacity:0.91;fill:#AA8889;}
	.st169{opacity:0.91;fill:#A88785;}
	.st170{opacity:0.91;fill:#C2A0A3;}
	.st171{opacity:0.91;fill:#9C7875;}
	.st172{opacity:0.91;fill:#8B5E59;}
	.st173{opacity:0.91;fill:#A17876;}
	.st174{opacity:0.91;fill:#C49CA1;}
	.st175{opacity:0.91;fill:#815E56;}
	.st176{opacity:0.91;fill:#71493E;}
	.st177{opacity:0.91;fill:#7A4B46;}
	.st178{opacity:0.91;fill:#8D6160;}
	.st179{opacity:0.91;fill:#BEA3AC;}
	.st180{opacity:0.91;fill:#9A747A;}
	.st181{opacity:0.91;fill:#BDA3A7;}
	.st182{opacity:0.91;fill:#A68B83;}
	.st183{opacity:0.91;fill:#B89B99;}
	.st184{opacity:0.91;fill:#C6A7A8;}
	.st185{opacity:0.91;fill:#BB999C;}
	.st186{opacity:0.91;fill:#BBA2A6;}
	.st187{opacity:0.91;fill:#1E080A;}
	.st188{opacity:0.91;fill:#462D34;}
	.st189{opacity:0.91;fill:#978289;}
	.st190{opacity:0.91;fill:#240D11;}
	.st191{opacity:0.91;fill:#9A848B;}
	.st192{opacity:0.91;fill:#B4A3A9;}
	.st193{opacity:0.91;fill:#AC959A;}
	.st194{opacity:0.91;fill:#9E858C;}
	.st195{opacity:0.91;fill:#9D8289;}
	.st196{opacity:0.91;fill:#452B2D;}
	.st197{opacity:0.91;fill:#352D3B;}
	.st198{opacity:0.91;fill:#3B272C;}
	.st199{opacity:0.91;fill:#15111C;}
	.st200{opacity:0.91;fill:#110F1B;}
	.st201{opacity:0.91;fill:#797E88;}
	.st202{opacity:0.91;fill:#88939C;}
	.st203{opacity:0.91;fill:#949DA6;}
	.st204{opacity:0.91;fill:#88818B;}
	.st205{opacity:0.91;fill:#80535B;}
	.st206{opacity:0.91;fill:#0A0B13;}
	.st207{opacity:0.91;fill:#292B36;}
	.st208{opacity:0.91;fill:#232530;}
	.st209{opacity:0.91;fill:#211418;}
	.st210{opacity:0.91;fill:#231618;}
	.st211{opacity:0.91;fill:#876562;}
	.st212{opacity:0.91;fill:#8C6F73;}
	.st213{opacity:0.91;fill:#42333D;}
	.st214{opacity:0.91;fill:#68616C;}
	.st215{opacity:0.91;fill:#78737D;}
	.st216{opacity:0.91;fill:#6B6977;}
	.st217{opacity:0.91;fill:#534753;}
	.st218{opacity:0.91;fill:#21171B;}
	.st219{opacity:0.91;fill:#170B0E;}
	.st220{opacity:0.91;fill:#170C0E;}
	.st221{opacity:0.91;fill:#7E524E;}
	.st222{opacity:0.91;fill:#3C171B;}
	.st223{opacity:0.91;fill:#8F706E;}
	.st224{opacity:0.91;fill:#9A7C7B;}
	.st225{opacity:0.91;fill:#967B7A;}
	.st226{opacity:0.91;fill:#9C8485;}
	.st227{opacity:0.91;fill:#A08A8A;}
	.st228{opacity:0.91;fill:#A98E8F;}
	.st229{opacity:0.91;fill:#9C7F7D;}
	.st230{opacity:0.91;fill:#937371;}
	.st231{opacity:0.91;fill:#7B594F;}
	.st232{opacity:0.91;fill:#805C58;}
	.st233{opacity:0.91;fill:#8A6B67;}
	.st234{opacity:0.91;fill:#7C524D;}
	.st235{opacity:0.91;fill:#7B544E;}
	.st236{opacity:0.91;fill:#714842;}
	.st237{opacity:0.91;fill:#5C272B;}
	.st238{opacity:0.91;fill:#936367;}
	.st239{opacity:0.91;fill:#966368;}
	.st240{opacity:0.91;fill:#845358;}
	.st241{opacity:0.91;fill:#7D4A4B;}
	.st242{opacity:0.91;fill:#805256;}
	.st243{opacity:0.91;fill:#84555B;}
	.st244{opacity:0.91;fill:#F6D6DC;}
	.st245{opacity:0.91;fill:#F7D8E2;}
	.st246{opacity:0.91;fill:#572227;}
	.st247{opacity:0.91;fill:#622F32;}
	.st248{opacity:0.91;fill:#5C2B30;}
	.st249{opacity:0.91;fill:#804F54;}
	.st250{opacity:0.91;fill:#542029;}
	.st251{opacity:0.91;fill:#3E1117;}
	.st252{opacity:0.91;fill:#693741;}
	.st253{opacity:0.91;fill:#7C4B51;}
	.st254{opacity:0.91;fill:#6C3B41;}
	.st255{opacity:0.91;fill:#6D3942;}
	.st256{opacity:0.91;fill:#8C5D66;}
	.st257{opacity:0.91;fill:#95696B;}
	.st258{opacity:0.91;fill:#9D747C;}
	.st259{opacity:0.91;fill:#C398A0;}
	.st260{opacity:0.91;fill:#C0969E;}
	.st261{opacity:0.91;fill:#A67D84;}
	.st262{opacity:0.91;fill:#90666E;}
	.st263{opacity:0.91;fill:#D8B1BA;}
	.st264{opacity:0.91;fill:#E2BCC6;}
	.st265{opacity:0.91;fill:#E7BFC8;}
	.st266{opacity:0.91;fill:#381117;}
	.st267{opacity:0.91;fill:#3F1718;}
	.st268{opacity:0.91;fill:#3B1018;}
	.st269{opacity:0.91;fill:#4F131F;}
	.st270{opacity:0.91;fill:#4F101C;}
	.st271{opacity:0.91;fill:#6A112C;}
	.st272{opacity:0.91;fill:#832747;}
	.st273{opacity:0.91;fill:#C26C94;}
	.st274{opacity:0.91;fill:#C26F96;}
	.st275{opacity:0.91;fill:#CE7F9D;}
	.st276{opacity:0.91;fill:#CD769B;}
	.st277{opacity:0.91;fill:#B26D85;}
	.st278{opacity:0.91;fill:#AF6482;}
	.st279{opacity:0.91;fill:#AF597E;}
	.st280{opacity:0.91;fill:#D186A5;}
	.st281{opacity:0.91;fill:#882853;}
	.st282{opacity:0.91;fill:#B75B84;}
	.st283{opacity:0.91;fill:#8E2E58;}
	.st284{opacity:0.91;fill:#721438;}
	.st285{opacity:0.91;fill:#6D1434;}
	.st286{opacity:0.91;fill:#400F19;}
	.st287{opacity:0.91;fill:#9F3F68;}
	.st288{opacity:0.91;fill:#993C61;}
	.st289{opacity:0.91;fill:#802B48;}
	.st290{opacity:0.91;fill:#7E2C45;}
	.st291{opacity:0.91;fill:#6F2338;}
	.st292{opacity:0.91;fill:#360F15;}
	.st293{opacity:0.91;fill:#461C22;}
	.st294{opacity:0.91;fill:#3C121B;}
	.st295{opacity:0.91;fill:#45131E;}
	.st296{opacity:0.91;fill:#9D817F;}
	.st297{opacity:0.91;fill:#BCA2A1;}
	.st298{opacity:0.91;fill:#AA918D;}
	.st299{opacity:0.91;fill:#643F3B;}
	.st300{opacity:0.91;fill:#B8A3A2;}
	.st301{opacity:0.91;fill:#715858;}
	.st302{opacity:0.91;fill:#B8A09D;}
	.st303{opacity:0.91;fill:#B69F9D;}
	.st304{opacity:0.91;fill:#B79F9B;}
	.st305{opacity:0.91;fill:#B09594;}
	.st306{opacity:0.91;fill:#221D1F;}
	.st307{opacity:0.91;fill:#6A5656;}
	.st308{opacity:0.91;fill:#13181F;}
	.st309{opacity:0.91;fill:#524244;}
	.st310{opacity:0.91;fill:#32343A;}
	.st311{opacity:0.91;fill:#232428;}
	.st312{opacity:0.91;fill:#080809;}
	.st313{opacity:0.91;fill:#12151A;}
	.st314{opacity:0.91;fill:#050607;}
	.st315{opacity:0.91;fill:#090B0C;}
	.st316{opacity:0.91;fill:#0A0A0C;}
	.st317{opacity:0.91;fill:#050606;}
	.st318{opacity:0.91;fill:#090909;}
	.st319{opacity:0.91;fill:#040505;}
	.st320{opacity:0.91;fill:#060607;}
	.st321{opacity:0.91;fill:#070708;}
	.st322{opacity:0.91;fill:#050507;}
	.st323{opacity:0.91;fill:#0B0B0C;}
	.st324{opacity:0.91;fill:#141113;}
	.st325{opacity:0.91;fill:#141514;}
	.st326{opacity:0.91;fill:#6C5958;}
	.st327{opacity:0.91;fill:#201B1D;}
	.st328{opacity:0.91;fill:#131112;}
	.st329{opacity:0.91;fill:#020303;}
	.st330{opacity:0.91;fill:#020203;}
	.st331{opacity:0.91;fill:#1E1D1D;}
	.st332{opacity:0.91;fill:#040304;}
	.st333{opacity:0.91;fill:#171518;}
	.st334{opacity:0.91;fill:#030304;}
	.st335{opacity:0.91;fill:#1A1414;}
	.st336{opacity:0.91;fill:#1A0F11;}
	.st337{opacity:0.91;fill:#110A0B;}
	.st338{opacity:0.91;fill:#1B1219;}
	.st339{opacity:0.91;fill:#040405;}
	.st340{opacity:0.91;fill:#060507;}
	.st341{opacity:0.91;fill:#0D0A0C;}
	.st342{opacity:0.91;fill:#251E21;}
	.st343{opacity:0.91;fill:#211E20;}
	.st344{opacity:0.91;fill:#1D1F1D;}
	.st345{opacity:0.91;fill:#221E1F;}
	.st346{opacity:0.91;fill:#0B070C;}
	.st347{opacity:0.91;fill:#0C0A0D;}
	.st348{opacity:0.91;fill:#100D11;}
	.st349{opacity:0.91;fill:#171017;}
	.st350{opacity:0.91;fill:#161415;}
	.st351{opacity:0.91;fill:#20161C;}
	.st352{opacity:0.91;fill:#050506;}
	.st353{opacity:0.91;fill:#060506;}
	.st354{opacity:0.91;fill:#0E0B0D;}
	.st355{opacity:0.91;fill:#150E10;}
	.st356{opacity:0.91;fill:#140F11;}
	.st357{opacity:0.91;fill:#090608;}
	.st358{opacity:0.91;fill:#090709;}
	.st359{opacity:0.91;fill:#F0D5D9;}
	.st360{opacity:0.91;fill:#FBE8F3;}
	.st361{opacity:0.91;fill:#582D30;}
	.st362{opacity:0.91;fill:#6B4544;}
	.st363{opacity:0.91;fill:#5E3B3C;}
	.st364{opacity:0.91;fill:#36151B;}
	.st365{opacity:0.91;fill:#6B3F38;}
	.st366{opacity:0.91;fill:#92929F;}
	.st367{opacity:0.91;fill:#050409;}
	.st368{opacity:0.91;fill:#D577A1;}
	.st369{opacity:0.91;fill:#8C2C56;}
	.st370{opacity:0.91;fill:#241326;}
	.st371{opacity:0.91;fill:#241224;}
	.st372{opacity:0.91;fill:#281326;}
	.st373{opacity:0.91;fill:#291125;}
	.st374{opacity:0.91;fill:#652A4C;}
	.st375{opacity:0.91;fill:#4D1935;}
	.st376{opacity:0.91;fill:#511D3A;}
	.st377{opacity:0.91;fill:#67204D;}
	.st378{opacity:0.91;fill:#511F3C;}
	.st379{opacity:0.91;fill:#3D142E;}
	.st380{opacity:0.91;fill:#551C40;}
	.st381{opacity:0.91;fill:#602149;}
	.st382{opacity:0.91;fill:#6E2556;}
	.st383{opacity:0.91;fill:#5C1C44;}
	.st384{opacity:0.91;fill:#6D2652;}
	.st385{opacity:0.91;fill:#4A1A39;}
	.st386{opacity:0.91;fill:#551E3F;}
	.st387{opacity:0.91;fill:#571D45;}
	.st388{opacity:0.91;fill:#070609;}
	.st389{opacity:0.91;fill:#0D0A10;}
	.st390{opacity:0.91;fill:#0F0A12;}
	.st391{opacity:0.91;fill:#160D17;}
	.st392{opacity:0.91;fill:#0C090D;}
	.st393{opacity:0.91;fill:#100A0F;}
	.st394{opacity:0.91;fill:#150B14;}
	.st395{opacity:0.91;fill:#170B13;}
	.st396{opacity:0.91;fill:#190C14;}
	.st397{opacity:0.91;fill:#190C13;}
	.st398{opacity:0.91;fill:#541A3E;}
	.st399{opacity:0.91;fill:#7E3066;}
	.st400{opacity:0.91;fill:#8E3476;}
	.st401{opacity:0.91;fill:#652151;}
	.st402{opacity:0.91;fill:#6D2A5B;}
	.st403{opacity:0.91;fill:#5E2755;}
	.st404{opacity:0.91;fill:#4F2042;}
	.st405{opacity:0.91;fill:#662A54;}
	.st406{opacity:0.91;fill:#1F111F;}
	.st407{opacity:0.91;fill:#1E0F1A;}
	.st408{opacity:0.91;fill:#2E182C;}
	.st409{opacity:0.91;fill:#854071;}
	.st410{opacity:0.91;fill:#AA5D95;}
	.st411{opacity:0.91;fill:#A0548D;}
	.st412{opacity:0.91;fill:#9C5187;}
	.st413{opacity:0.91;fill:#8E457A;}
	.st414{opacity:0.91;fill:#813C6F;}
	.st415{opacity:0.91;fill:#844075;}
	.st416{opacity:0.91;fill:#2B0F22;}
	.st417{opacity:0.91;fill:#130A10;}
	.st418{opacity:0.91;fill:#54264A;}
	.st419{opacity:0.91;fill:#351727;}
	.st420{opacity:0.91;fill:#713A5A;}
	.st421{opacity:0.91;fill:#6D425B;}
	.st422{opacity:0.91;fill:#2C1020;}
	.st423{opacity:0.91;fill:#662E53;}
	.st424{opacity:0.91;fill:#8D4C76;}
	.st425{opacity:0.91;fill:#150910;}
	.st426{opacity:0.91;fill:#190C19;}
	.st427{opacity:0.91;fill:#3D0E2A;}
	.st428{opacity:0.91;fill:#10080E;}
	.st429{opacity:0.91;fill:#2D1126;}
	.st430{opacity:0.91;fill:#0E070D;}
	.st431{opacity:0.91;fill:#66525D;}
	.st432{opacity:0.91;fill:#160A10;}
	.st433{opacity:0.91;fill:#502C43;}
	.st434{opacity:0.91;fill:#8C6F79;}
	.st435{opacity:0.91;fill:#623F42;}
	.st436{opacity:0.91;fill:#10090F;}
	.st437{opacity:0.91;fill:#431E36;}
	.st438{opacity:0.91;fill:#261322;}
	.st439{opacity:0.91;fill:#392030;}
	.st440{opacity:0.91;fill:#0E050A;}
	.st441{opacity:0.91;fill:#15080E;}
	.st442{opacity:0.91;fill:#210C18;}
	.st443{opacity:0.91;fill:#220E1B;}
	.st444{opacity:0.91;fill:#4B1E3C;}
	.st445{opacity:0.91;fill:#3A2338;}
	.st446{opacity:0.91;fill:#9A5C94;}
	.st447{opacity:0.91;fill:#231223;}
	.st448{opacity:0.91;fill:#170D1B;}
	.st449{opacity:0.91;fill:#201225;}
	.st450{opacity:0.91;fill:#2A1026;}
	.st451{opacity:0.91;fill:#251318;}
	.st452{opacity:0.91;fill:#572746;}
	.st453{opacity:0.91;fill:#1F0B13;}
	.st454{opacity:0.91;fill:#2D1426;}
	.st455{opacity:0.91;fill:#3F1933;}
	.st456{opacity:0.91;fill:#170911;}
	.st457{opacity:0.91;fill:#7F2F65;}
	.st458{opacity:0.91;fill:#9B408A;}
	.st459{opacity:0.91;fill:#2F0E24;}
	.st460{opacity:0.91;fill:#501744;}
	.st461{opacity:0.91;fill:#591B4F;}
	.st462{opacity:0.91;fill:#52274B;}
	.st463{opacity:0.91;fill:#331536;}
	.st464{opacity:0.91;fill:#702D5A;}
	.st465{opacity:0.91;fill:#591E44;}
	.st466{opacity:0.91;fill:#672654;}
	.st467{opacity:0.91;fill:#6D2C5A;}
	.st468{opacity:0.91;fill:#6F2F5D;}
	.st469{opacity:0.91;fill:#562046;}
	.st470{opacity:0.91;fill:#864578;}
	.st471{opacity:0.91;fill:#522246;}
	.st472{opacity:0.91;fill:#71376A;}
	.st473{opacity:0.91;fill:#713968;}
	.st474{opacity:0.91;fill:#632A59;}
	.st475{opacity:0.91;fill:#6D3263;}
	.st476{opacity:0.91;fill:#0C070C;}
	.st477{opacity:0.91;fill:#030405;}
	.st478{opacity:0.91;fill:#0D090D;}
	.st479{opacity:0.91;fill:#0A080C;}
	.st480{opacity:0.91;fill:#1B0C17;}
	.st481{opacity:0.91;fill:#261320;}
	.st482{opacity:0.91;fill:#301427;}
	.st483{opacity:0.91;fill:#1A0C17;}
	.st484{opacity:0.91;fill:#31152A;}
	.st485{opacity:0.91;fill:#110A13;}
	.st486{opacity:0.91;fill:#120B12;}
	.st487{opacity:0.91;fill:#311426;}
	.st488{opacity:0.91;fill:#1F111C;}
	.st489{opacity:0.91;fill:#1A0D18;}
	.st490{opacity:0.91;fill:#1B101E;}
	.st491{opacity:0.91;fill:#391A35;}
	.st492{opacity:0.91;fill:#21121F;}
	.st493{opacity:0.91;fill:#190D17;}
	.st494{opacity:0.91;fill:#1C111D;}
	.st495{opacity:0.91;fill:#241325;}
	.st496{opacity:0.91;fill:#130D14;}
	.st497{opacity:0.91;fill:#0F0B10;}
	.st498{opacity:0.91;fill:#0D0B0F;}
	.st499{opacity:0.91;fill:#0E0B10;}
	.st500{opacity:0.91;fill:#120A11;}
	.st501{opacity:0.91;fill:#130E10;}
	.st502{opacity:0.91;fill:#140B10;}
	.st503{opacity:0.91;fill:#140B12;}
	.st504{opacity:0.91;fill:#190F14;}
	.st505{opacity:0.91;fill:#1C1017;}
</style>
<polygon class="st0" points="341.33,511.94 396.73,513.57 381.08,468.14 "/>
<polygon class="st1" points="341.33,468.14 341.33,511.94 381.08,468.14 "/>
<polygon class="st0" points="312.02,468.14 297.96,496.9 328.48,507.69 "/>
<polygon class="st2" points="338.11,467.05 327.91,507.69 310.48,467.05 "/>
<polygon class="st2" points="341.33,511.94 337.86,468.16 327.44,507.69 "/>
<polygon class="st3" points="341.33,468.14 335.96,468.14 341.33,512.51 "/>
<polygon class="st0" points="410.39,468.14 396.73,513.57 381.08,468.14 "/>
<polygon class="st0" points="446.79,468.14 381.08,468.14 396.73,513.57 "/>
<polygon class="st0" points="474.36,504.86 446.79,468.14 406.34,504.86 450.4,504.86 "/>
<polygon class="st4" points="396.73,513.57 452.14,504.86 406.34,504.86 "/>
<polygon class="st5" points="400.22,523.85 397.48,515.76 430.65,508.24 "/>
<polygon class="st5" points="410.39,522.94 400.22,523.85 430.1,508.5 "/>
<polygon class="st5" points="426.05,518.61 408.98,522.94 430.65,508.24 "/>
<polygon class="st5" points="443.61,514.81 426.05,518.61 430.48,508.24 "/>
<polygon class="st5" points="445.42,505.91 442.51,514.96 430.65,508.24 "/>
<polygon class="st5" points="455.86,504.86 445.42,505.91 442.51,514.96 "/>
<polygon class="st5" points="455.86,513.98 442.51,514.96 455.86,504.86 "/>
<polygon class="st5" points="464.49,512.75 455.86,513.98 455.86,504.86 "/>
<polygon class="st6" points="472.17,513.08 464.49,512.75 455.86,504.86 "/>
<polygon class="st7" points="479.19,514.96 472.17,513.08 455.86,504.86 478.49,509.42 "/>
<polygon class="st8" points="318.13,511.97 315.19,507.24 336.67,514.63 "/>
<polygon class="st0" points="485.07,503.28 474.68,505.11 469.01,474.67 "/>
<polygon class="st9" points="468.6,473.53 446.79,468.14 474.36,504.86 "/>
<polygon class="st10" points="446.79,467.87 445.05,447.82 468.6,473.53 "/>
<polygon class="st11" points="410.39,412.57 446.2,466.96 446.79,467.87 381.08,468.14 "/>
<polygon class="st12" points="425.19,434.77 445.05,447.82 446.2,466.96 "/>
<path class="st13" d="M410.23,413.3l14.96,21.47c0,0,0.01,0.01,0.01,0.01l19.03,13.09c0.04,0.03,0.1-0.02,0.07-0.05l-33.99-34.56
	C410.27,413.22,410.2,413.26,410.23,413.3z"/>
<polygon class="st14" points="410.39,412.57 355.78,413.99 381.08,468.14 "/>
<polygon class="st15" points="322.59,442.53 355.78,413.99 381.08,468.14 "/>
<polygon class="st16" points="312.02,467.48 322.59,442.53 381.08,468.14 "/>
<polygon class="st17" points="341.33,511.94 357.92,539.61 396.73,513.57 "/>
<polygon class="st18" points="400.08,523.7 396.73,513.57 357.92,539.61 "/>
<polygon class="st19" points="339.72,522.88 348.86,524.5 340.86,511.41 "/>
<polygon class="st5" points="335.73,510.09 340.87,516.6 340.26,522.94 "/>
<polygon class="st20" points="340.87,511.79 340.87,516.6 335.73,510.09 "/>
<polygon class="st5" points="328.48,508.1 335.73,510.09 340.26,522.94 "/>
<polygon class="st5" points="340.12,522.77 327.75,518.77 328.28,507.83 "/>
<path class="st5" d="M328.28,507.83c0,0-10.56,6.21-10.04,6.21s10.04,4.92,10.04,4.92V507.83z"/>
<polygon class="st5" points="315.36,503.18 318.01,514.47 328.28,507.89 "/>
<polygon class="st5" points="317.91,514.23 306.63,508.7 315.54,503.18 "/>
<polygon class="st5" points="297.09,498.54 301.82,498.26 303.05,507.14 "/>
<polygon class="st5" points="310.11,501.1 301.82,498.26 303.09,507.14 "/>
<polygon class="st5" points="303.46,507.69 303.74,507.59 315.93,503.18 309.95,501.1 303.05,507.14 "/>
<polygon class="st5" points="307.26,508.58 303.73,507.59 315.93,503.18 "/>
<polygon class="st5" points="295.77,503.18 297.09,498.54 303.05,507.14 "/>
<polygon class="st5" points="297.45,496.66 297.09,498.97 302.18,498.97 "/>
<polygon class="st21" points="357.49,539.61 340.26,522.94 348.86,524.5 "/>
<polygon class="st22" points="357.49,539.8 327.98,518.96 340.26,522.94 "/>
<polygon class="st23" points="326.5,523.23 328.9,519.25 358.42,540.09 "/>
<polygon class="st24" points="294.89,515.64 295.79,502.7 328.48,519.25 "/>
<polygon class="st25" points="307.53,517.28 325.57,522.94 327.98,518.96 "/>
<polygon class="st26" points="297.09,522.51 307.53,517.28 294.89,515.52 "/>
<polygon class="st27" points="298.42,526.87 297.09,522.56 307.53,517.28 "/>
<polygon class="st28" points="347.15,543.26 357.49,539.61 349.88,535.78 "/>
<polygon class="st29" points="318.22,543.81 321.85,539.28 334.37,543.81 "/>
<polygon class="st29" points="321.85,534.98 321.85,539.28 334.37,543.81 "/>
<polygon class="st29" points="320.52,529.97 321.85,534.98 334.37,543.81 "/>
<polygon class="st30" points="335.96,539.8 334.57,543.81 320.52,529.97 "/>
<polygon class="st31" points="335.73,534.65 335.73,539.8 320.52,529.97 "/>
<polygon class="st32" points="318.07,543.91 313.77,543.91 321.79,534.87 321.45,535.69 "/>
<polygon class="st32" points="320.78,531.13 321.79,534.92 313.77,543.96 "/>
<polygon class="st32" points="310.34,541.18 314.11,543.81 317.73,537.02 "/>
<polygon class="st33" points="311.91,543.97 310.34,541.3 314.26,543.97 "/>
<polygon class="st32" points="308.4,538.42 310.34,541.3 317.83,537.02 "/>
<polygon class="st34" points="312.12,532.13 313.96,529.77 315.66,533.11 "/>
<polygon class="st34" points="315.61,529.59 313.96,529.81 315.61,533.01 "/>
<polygon class="st35" points="312.57,535.03 312.19,532.16 315.73,533.11 "/>
<polygon class="st35" points="315.32,537.65 312.28,534.96 315.89,533.02 "/>
<polygon class="st35" points="317.7,537.11 315.22,537.57 315.75,532.92 "/>
<polygon class="st35" points="319.74,531.6 317.69,537.09 315.72,532.96 "/>
<polygon class="st35" points="319.25,531.7 315.2,529.47 315.2,533.32 "/>
<polygon class="st36" points="317.44,530.73 320.75,530.84 319.14,531.71 "/>
<polygon class="st36" points="319.7,528.98 317.44,530.72 320.98,530.84 "/>
<polygon class="st37" points="316.39,527.03 319.54,529.18 317.44,530.73 "/>
<polygon class="st38" points="315.62,526.28 313.64,526.38 317,530.43 "/>
<polygon class="st32" points="307.8,535.8 308.52,538.69 315.77,537.58 "/>
<polygon class="st32" points="307.8,532.57 307.8,536.1 312.85,535.2 "/>
<polygon class="st32" points="315.23,537.62 307.8,535.95 313.11,534.9 "/>
<polygon class="st39" points="309.22,529.15 307.63,532.57 311.72,532.21 312.12,532.17 "/>
<polygon class="st39" points="312.57,535.03 307.8,532.56 312.16,532.16 "/>
<polygon class="st40" points="308.87,529.04 312.28,529.04 313.71,526.59 "/>
<polygon class="st41" points="308.85,529.18 302.78,529.4 313.82,526.59 "/>
<polygon class="st42" points="305.54,526.11 313.82,526.59 302.78,529.4 "/>
<polygon class="st43" points="298.51,526.87 305.64,525.98 302.88,529.26 "/>
<polygon class="st44" points="298.18,526.69 299.31,529.75 303.08,529.35 "/>
<polygon class="st45" points="303.48,526.37 298.39,526.87 307.78,517.09 "/>
<polygon class="st46" points="306.5,520.11 313.01,519.01 307.53,517.28 "/>
<polygon class="st46" points="318.22,520.7 313.01,519.01 306.5,520.02 "/>
<polygon class="st47" points="304.66,523.96 318.29,520.62 306.5,519.76 "/>
<polygon class="st48" points="313.82,521.73 318.33,520.62 322.46,525.54 "/>
<polygon class="st49" points="322.83,525.67 325.74,522.68 318.14,520.61 "/>
<polygon class="st50" points="329.23,528.39 325.57,522.94 322.76,525.54 "/>
<polygon class="st51" points="333.73,527.16 329.17,528.5 325.27,522.68 "/>
<polygon class="st52" points="336.51,532.2 333.51,527.14 329.23,528.39 "/>
<polygon class="st53" points="341.1,531.04 336.64,532.27 333.51,527.14 "/>
<polygon class="st54" points="344.34,534.72 336.31,532.23 339.6,531.28 "/>
<polygon class="st55" points="345.42,535.3 340.66,530.91 339.49,531.24 "/>
<polygon class="st56" points="346.95,534.52 344.49,534.98 340.69,530.91 "/>
<polygon class="st57" points="345.19,535.19 347.15,534.61 349.88,535.78 "/>
<polygon class="st58" points="348.29,539.9 344.14,535.2 349.88,535.84 "/>
<polygon class="st59" points="341.33,533.75 345.29,535.03 347.41,543.63 "/>
<polygon class="st60" points="345.62,536.89 347,543.26 348.51,539.52 "/>
<polygon class="st61" points="317.67,523.14 316.08,526.28 320.84,529.97 323.25,525.14 "/>
<polygon class="st62" points="330.75,529.21 320.52,530.4 323.06,525.54 "/>
<polygon class="st63" points="323.66,529.83 329.54,531.44 329.54,528.88 "/>
<polygon class="st64" points="334.37,533.22 329.54,531.61 329.54,528.88 "/>
<polygon class="st65" points="337.31,532.51 334.68,533.35 329.54,528.53 "/>
<polygon class="st66" points="327.98,532.14 323.84,529.83 320.81,530.16 "/>
<polygon class="st67" points="327.98,532.14 329.54,531.44 323.66,529.83 "/>
<polygon class="st67" points="333.47,533.97 327.41,532.19 329.13,531.27 "/>
<polygon class="st68" points="334.15,533.35 333.25,533.75 329.54,531.44 "/>
<polygon class="st69" points="335.92,534.74 336.88,531.96 332.87,533.9 "/>
<polygon class="st70" points="336.04,534.41 341.53,533.53 336.58,531.96 "/>
<polygon class="st70" points="335.73,536.45 335.9,536.37 341.53,533.57 335.96,534.28 "/>
<polygon class="st71" points="343.38,536.89 335.73,536.43 341.53,533.57 "/>
<polygon class="st72" points="339.72,536.89 343.38,536.89 347.15,543.26 "/>
<polygon class="st73" points="345.19,544.54 347.15,543.26 342.17,538.99 "/>
<polygon class="st74" points="335.7,540.61 339.72,536.95 335.46,536.45 "/>
<polygon class="st75" points="338.74,544.79 345.19,544.79 342.17,538.99 "/>
<polygon class="st76" points="338.97,540.25 339.72,536.89 335.96,540.25 "/>
<polygon class="st77" points="338.74,544.71 335.96,540.25 334.37,543.94 "/>
<polygon class="st78" points="338.97,540.25 342.17,538.99 339.72,536.89 "/>
<polygon class="st77" points="338.68,544.71 335.69,540.25 338.92,540.25 "/>
<polygon class="st79" points="300.47,533.39 303.2,529.4 299,529.84 "/>
<polygon class="st80" points="306.5,529.3 300.6,532.49 302.79,529.3 "/>
<polygon class="st80" points="308.87,528.98 306.38,529.29 307.53,532.72 "/>
<polygon class="st80" points="307.47,532.43 302.25,531.58 306.43,529.26 "/>
<polygon class="st81" points="299.49,532.98 301.83,531.53 308.11,532.51 "/>
<polygon class="st82" points="301.42,535.21 300.17,532.91 308.05,532.46 "/>
<polygon class="st82" points="307.8,535.87 301.43,535.14 307.8,532.5 "/>
<polygon class="st83" points="301.1,538.78 301.43,535.1 307.53,535.8 "/>
<polygon class="st84" points="301.36,538.63 306.01,538.63 307.87,535.68 "/>
<polygon class="st85" points="308.47,538.63 305.79,538.57 307.8,535.8 "/>
<polygon class="st86" points="300.88,538.58 305.79,538.36 303.96,543.15 "/>
<polygon class="st86" points="298.9,543.57 301.22,538.65 304.32,543.57 "/>
<polygon class="st87" points="303.84,543.44 308.47,538.41 305.67,538.35 "/>
<polygon class="st33" points="303.75,543.5 312.08,543.9 308.5,538.35 "/>
<polygon class="st88" points="298.67,543.64 301.1,548.34 304.04,543.44 "/>
<polygon class="st89" points="296.16,549.16 298.67,543.64 301.1,548.34 "/>
<polygon class="st90" points="296.16,549.16 298.9,551.53 301.1,548.34 "/>
<polygon class="st91" points="314.84,543.97 298.9,551.53 304.04,543.44 "/>
<polygon class="st92" points="345.19,544.79 344.14,546.64 338.74,544.54 "/>
<polygon class="st75" points="338.63,544.42 337.18,547.73 344.14,546.53 "/>
<polygon class="st93" points="334.42,543.79 337.23,547.55 338.69,544.56 "/>
<polygon class="st94" points="314.84,543.97 304.04,549.16 309.99,555.3 "/>
<polygon class="st95" points="330.61,549.16 309.99,555.3 314.84,543.97 "/>
<polyline class="st96" points="327.19,546.05 314.84,543.97 330.61,549.16 337.18,547.73 327.19,546.05 "/>
<polygon class="st95" points="335.73,555.3 309.99,555.3 337.18,547.73 "/>
<polygon class="st97" points="344.66,546.56 335.73,555.57 337.18,547.49 "/>
<polygon class="st73" points="347.54,543.81 344.94,546.86 344.14,546.64 345.19,544.54 347.15,543.26 "/>
<polygon class="st98" points="357.49,539.8 335.73,555.57 347.54,543.81 347.15,543.26 "/>
<polygon class="st99" points="298.42,551.53 304.04,549.16 309.99,555.3 "/>
<polygon class="st100" points="290.44,561.38 296.16,549.16 298.9,551.53 "/>
<polygon class="st101" points="309.99,555.3 290.44,561.38 298.9,551.53 "/>
<polygon class="st102" points="290.44,561.38 335.73,555.3 309.99,555.3 "/>
<polygon class="st103" points="290.44,562.06 313.08,591.58 336.5,562.06 "/>
<polygon class="st104" points="335.73,555.57 336.5,562.06 289.93,561.74 "/>
<polygon class="st105" points="349.5,545.59 336.5,562.06 335.73,555.57 "/>
<polygon class="st106" points="285.12,575.68 290.44,562.06 313.08,591.58 "/>
<polygon class="st107" points="286.32,597.03 285.12,575.68 313.08,591.58 "/>
<polygon class="st108" points="289.26,611.85 286.32,597.03 313.08,591.58 "/>
<polygon class="st109" points="296.49,635.38 313.08,591.58 289.26,611.85 "/>
<polygon class="st110" points="305.86,659.35 296.49,635.38 313.08,591.58 312.25,599.42 "/>
<polygon class="st111" points="315.09,642.57 305.86,659.35 313.08,591.58 "/>
<polygon class="st112" points="319.38,637.67 315.09,642.57 313.48,601.72 "/>
<polygon class="st113" points="334.5,637.46 319.38,637.67 313.48,601.05 "/>
<polygon class="st114" points="343.6,639.74 334.5,637.46 341.86,612.5 "/>
<polygon class="st115" points="331.02,610.76 341.86,612.5 334.5,637.46 "/>
<polygon class="st116" points="316.05,604.91 331.02,610.76 334.5,637.46 "/>
<polygon class="st117" points="317.97,647.65 315.09,642.57 305.86,659.35 "/>
<polygon class="st118" points="320.31,648.68 317.97,647.65 305.86,659.35 "/>
<polygon class="st119" points="320.31,652.84 320.31,648.68 305.86,659.35 "/>
<polygon class="st120" points="320.88,657.61 320.31,652.84 305.86,659.35 "/>
<polygon class="st121" points="325.13,662.43 320.88,657.61 305.86,659.35 "/>
<polygon class="st122" points="311.45,670.06 325.13,662.43 305.86,659.35 "/>
<polygon class="st123" points="351.23,639.16 343.47,639.71 341.73,612.47 "/>
<polygon class="st124" points="361,641.48 351.36,639.2 341.86,612.5 "/>
<polygon class="st125" points="377.19,644.86 361,641.48 362.12,614.55 "/>
<polygon class="st126" points="341.86,612.5 362.12,614.55 361,641.48 "/>
<polygon class="st127" points="393.42,648.81 377.19,644.86 383.89,616.37 "/>
<polygon class="st128" points="362.12,614.87 383.89,616.7 377.19,645.19 "/>
<polygon class="st129" points="412.8,650.69 393.42,648.81 392.92,616.37 "/>
<polygon class="st130" points="383.89,616.37 392.92,616.37 393.42,648.81 "/>
<polygon class="st131" points="317.97,681.2 311.45,670.06 325.13,662.43 "/>
<polygon class="st132" points="322.52,692.42 317.97,681.2 325.13,662.43 "/>
<polygon class="st133" points="335.84,669 325.13,662.43 322.52,692.42 "/>
<polygon class="st134" points="352.97,671.81 335.84,669 322.52,692.42 "/>
<polygon class="st135" points="328.21,704.46 322.52,692.42 352.97,671.81 "/>
<polygon class="st136" points="338.92,715.74 328.21,704.46 352.97,671.81 "/>
<polygon class="st137" points="372.54,671.81 352.97,671.81 338.92,715.74 "/>
<polygon class="st138" points="353.97,721.62 338.92,715.74 372.54,671.81 "/>
<polygon class="st139" points="378.37,724.64 353.97,721.62 372.54,671.81 "/>
<polygon class="st140" points="399.75,722.36 378.37,724.64 372.54,671.81 "/>
<polygon class="st141" points="414.4,720.23 399.75,722.36 403.06,714.35 "/>
<polygon class="st142" points="394.15,711.95 403.06,714.35 399.75,722.36 "/>
<polygon class="st143" points="404.24,711.75 402.83,712.9 405.47,714.55 "/>
<polygon class="st143" points="406.29,712.47 404.23,711.75 405.46,714.55 "/>
<polygon class="st143" points="403.06,714.35 402.83,712.9 405.47,714.55 "/>
<polygon class="st144" points="406.87,716.19 405.47,714.55 403.06,714.35 "/>
<polygon class="st144" points="408.7,712.9 406.87,716.19 405.47,714.55 "/>
<polygon class="st142" points="394.15,711.95 402.83,712.9 403.06,714.35 "/>
<polygon class="st140" points="393.92,666 372.54,671.81 394.15,711.95 "/>
<polygon class="st145" points="411.26,659.73 393.92,666 394.15,711.95 "/>
<polygon class="st146" points="402.83,712.9 411.26,659.73 394.15,711.95 "/>
<polygon class="st144" points="406.3,712.47 408.7,712.9 405.47,714.55 "/>
<polygon class="st147" points="411.26,659.73 408.7,712.9 404.24,711.75 402.83,712.9 "/>
<polygon class="st148" points="414.4,720.23 408.7,712.9 406.87,716.19 "/>
<polygon class="st149" points="411.26,659.73 424.44,654.78 411.26,670.03 "/>
<polygon class="st150" points="410.64,678.96 411.26,670.03 424.44,654.78 "/>
<polygon class="st151" points="429.12,688.97 424.44,654.78 410.64,678.96 "/>
<polygon class="st152" points="408.7,712.9 429.12,688.97 410.64,678.96 "/>
<polygon class="st153" points="414.4,720.23 429.12,688.97 408.7,712.9 "/>
<polygon class="st154" points="441.03,714.35 414.4,720.23 429.12,688.97 "/>
<polygon class="st155" points="465.26,707.84 441.03,714.35 429.12,688.97 "/>
<polygon class="st156" points="424.44,654.78 465.26,707.84 429.12,688.97 "/>
<polygon class="st157" points="498.72,693.78 465.26,707.84 487.27,684.52 "/>
<polygon class="st156" points="424.44,654.78 487.27,684.52 465.26,707.84 "/>
<polygon class="st158" points="513.94,624.54 487.24,684.52 498.68,693.78 "/>
<polygon class="st158" points="517.59,646.28 513.98,624.54 498.72,693.78 "/>
<polygon class="st159" points="412.8,650.69 424.44,654.78 421.83,640.31 "/>
<polygon class="st160" points="392.92,616.37 421.83,640.31 412.8,650.69 "/>
<polygon class="st161" points="402.7,607.54 392.92,616.37 421.83,640.31 "/>
<polygon class="st162" points="438.59,661.48 421.83,640.31 424.44,654.78 "/>
<polygon class="st163" points="436.08,654.78 431.06,642.27 436.58,647.54 "/>
<polygon class="st164" points="421.83,640.31 431.06,642.27 436.08,654.78 "/>
<polygon class="st165" points="434.41,656.2 436.08,654.78 421.83,640.31 "/>
<polygon class="st156" points="438.59,661.48 436.58,647.54 436.08,654.78 "/>
<polygon class="st166" points="431.06,642.31 421.83,640.35 402.7,607.59 "/>
<polygon class="st167" points="406.67,601.09 402.7,607.54 431.06,642.27 "/>
<polygon class="st168" points="406.67,601.09 406.67,601.09 431.06,642.27 452.85,593.73 "/>
<polygon class="st169" points="436.58,647.54 452.85,593.73 431.06,642.27 "/>
<polygon class="st170" points="406.67,593.73 406.67,601.09 452.85,593.73 "/>
<polygon class="st171" points="455.86,669.65 452.85,593.73 436.58,647.54 "/>
<polygon class="st156" points="438.59,661.48 436.58,647.54 455.86,669.65 "/>
<path class="st0" d="M487.27,684.52l-34.43-90.79L487.27,684.52z"/>
<polygon class="st172" points="513.98,624.54 452.85,593.73 487.27,684.52 "/>
<polygon class="st173" points="507.02,573.28 495.94,577.46 513.98,624.54 "/>
<polygon class="st173" points="452.85,593.82 495.94,577.55 513.98,624.63 "/>
<polygon class="st170" points="396.73,587.44 406.67,593.73 452.85,593.73 "/>
<polygon class="st174" points="507.02,573.28 396.73,587.44 452.85,593.73 "/>
<polygon class="st175" points="498.85,547.67 495,574.82 507.02,573.28 "/>
<polygon class="st176" points="468.2,563.36 496.67,563.02 498.85,547.67 "/>
<polygon class="st177" points="473.56,546.48 468.2,563.36 498.85,547.67 "/>
<polygon class="st177" points="463.65,549.31 473.56,546.48 468.2,563.36 "/>
<polygon class="st178" points="439.83,552.36 463.65,549.31 468.2,563.36 "/>
<polygon class="st179" points="410.39,549.31 439.83,552.36 451.88,564.56 "/>
<polygon class="st180" points="468.2,563.36 451.88,564.56 439.83,552.36 "/>
<polygon class="st181" points="410.39,549.31 421.23,566.41 451.88,564.56 "/>
<polygon class="st182" points="477.39,577.08 496.67,563.02 495,574.82 "/>
<polygon class="st182" points="467.7,563.4 468.2,563.36 477.39,577.08 496.67,563.02 "/>
<polygon class="st183" points="451.88,564.56 468.2,563.36 477.39,577.08 "/>
<polygon class="st183" points="447,580.99 451.88,564.56 477.39,577.08 "/>
<polygon class="st184" points="421.23,566.41 447,580.99 451.88,564.56 "/>
<polygon class="st185" points="396.73,587.44 421.23,566.41 447,580.99 "/>
<polygon class="st186" points="410.39,549.31 396.73,587.44 421.23,566.41 "/>
<polygon class="st187" points="418.82,533.92 410.39,549.31 418.08,550.11 "/>
<polygon class="st188" points="421.23,548.38 418.08,550.11 418.33,544.62 "/>
<polygon class="st189" points="421.23,538.25 418.33,544.62 421.23,548.38 "/>
<polygon class="st190" points="418.82,533.92 421.23,538.25 418.33,544.62 "/>
<polygon class="st191" points="421.23,548.38 425.34,550.86 418.08,550.11 "/>
<polygon class="st192" points="421.23,541.74 424.91,548.38 421.23,548.38 "/>
<polygon class="st193" points="424.91,550.54 424.91,548.33 421.23,548.33 "/>
<polygon class="st32" points="421.23,541.5 428.81,542.94 424.99,548.38 "/>
<polygon class="st32" points="432.94,551.63 427.85,550.11 428.61,543.13 "/>
<polygon class="st194" points="424.91,550.63 427.85,550.12 424.91,548.33 "/>
<polygon class="st195" points="432.84,551.63 427.85,550.11 425.22,550.6 432.84,551.63 "/>
<path class="st32" d="M436.84,549.92l-3.83,1.67c-0.07,0.03-0.15,0.01-0.18-0.05l-4.34-8.48c-0.05-0.1,0.11-0.19,0.21-0.11
	l8.18,6.82C436.93,549.8,436.92,549.88,436.84,549.92z"/>
<polygon class="st32" points="441.03,544.33 436.8,549.99 428.48,542.75 "/>
<polygon class="st32" points="440.9,540.78 440.9,544.73 431.47,543.38 "/>
<polygon class="st32" points="438.26,535.39 440.9,540.78 431.7,543.32 "/>
<polygon class="st32" points="432.3,535.72 433.67,540.99 438.26,535.39 "/>
<polygon class="st196" points="421.23,541.74 425.71,538.96 427.45,542.7 "/>
<polygon class="st34" points="425.57,538.97 427.42,535.01 428.64,539.7 "/>
<polygon class="st197" points="427.45,542.7 428.6,539.61 425.71,538.96 "/>
<polygon class="st197" points="432.12,543.32 427.15,542.69 428.49,539.54 "/>
<polygon class="st197" points="432.59,535.69 434.08,540.58 428.6,539.69 "/>
<polygon class="st197" points="431.75,543.38 428.6,539.61 434.08,540.44 "/>
<polygon class="st196" points="421.23,541.74 421.23,538.25 425.71,538.96 "/>
<polygon class="st196" points="427.45,535.39 421.23,538.25 425.71,538.96 "/>
<polygon class="st198" points="418.82,533.92 423.07,531.77 421.23,538.25 "/>
<polygon class="st199" points="427.45,535.39 423.07,531.77 421.23,538.25 "/>
<polygon class="st199" points="432.3,535.69 427.45,535.39 429.88,531.77 "/>
<polygon class="st199" points="423.07,531.77 429.88,531.77 427.45,535.39 "/>
<polygon class="st199" points="438.26,535.39 432.3,535.69 434.75,531.77 "/>
<polygon class="st199" points="429.64,531.67 434.98,531.67 432.3,535.69 "/>
<polygon class="st200" points="438.26,535.39 445.42,532.2 434.75,531.77 "/>
<polygon class="st201" points="440.9,540.78 445.42,535.69 438.26,535.39 "/>
<polygon class="st202" points="462.19,542.01 445.42,535.69 440.9,540.78 "/>
<polygon class="st203" points="440.9,544.62 462.19,542.01 440.9,540.78 "/>
<polygon class="st203" points="436.75,549.99 440.9,544.62 462.19,542.01 "/>
<polygon class="st203" points="432.84,551.63 436.75,549.99 439.83,552.36 "/>
<polygon class="st203" points="462.19,542.01 439.83,552.36 436.75,549.99 "/>
<polygon class="st204" points="463.65,549.31 462.19,542.01 439.83,552.36 "/>
<polygon class="st205" points="473.56,546.48 462.19,542.01 463.65,549.31 "/>
<polygon class="st206" points="445.42,535.69 445.42,532.2 438.26,535.39 "/>
<polygon class="st207" points="462.19,542.01 445.42,532.2 445.42,535.69 "/>
<polygon class="st208" points="467.17,537.94 445.42,532.2 462.19,542.01 "/>
<polygon class="st209" points="473.56,546.48 467.17,537.94 462.19,542.01 "/>
<polygon class="st210" points="498.85,547.67 467.17,537.94 473.56,546.48 "/>
<polygon class="st211" points="418.82,533.92 412.93,535.01 410.39,549.31 "/>
<polygon class="st212" points="421.87,528.61 412.93,535.01 418.82,533.92 "/>
<polygon class="st213" points="423.07,531.77 421.87,528.61 418.82,533.92 "/>
<polygon class="st214" points="429.88,531.77 421.87,528.61 423.07,531.77 "/>
<polygon class="st215" points="421.87,528.61 432.84,526.59 429.88,531.77 "/>
<polygon class="st216" points="445.42,532.2 434.75,531.77 432.84,526.59 "/>
<polygon class="st217" points="450.67,526.59 432.84,526.59 445.42,532.2 "/>
<polygon class="st218" points="467.17,537.94 445.42,532.2 450.67,526.59 "/>
<polygon class="st219" points="472.17,530.79 467.17,537.94 450.67,526.59 "/>
<polygon class="st220" points="485.07,543.44 472.17,530.79 467.17,537.94 "/>
<polygon class="st221" points="498.85,547.67 472.17,530.79 485.07,543.44 "/>
<polygon class="st0" points="485.07,503.28 478.49,509.42 474.68,505.11 "/>
<polygon class="st222" points="479.19,514.96 485.07,503.28 478.49,509.42 "/>
<polygon class="st0" points="492.03,523.85 479.19,514.96 485.07,503.28 "/>
<polygon class="st0" points="493.29,544.16 492.03,523.85 498.85,547.67 "/>
<polygon class="st223" points="472.17,530.79 492.03,523.85 493.29,544.16 "/>
<polygon class="st223" points="450.67,526.59 479.19,514.96 472.17,530.79 "/>
<polygon class="st221" points="492.03,523.85 479.19,514.96 472.17,530.79 "/>
<polygon class="st224" points="464.49,512.75 450.67,526.59 479.19,514.96 472.17,513.08 "/>
<polygon class="st225" points="442.51,514.96 450.67,526.59 464.49,512.75 455.86,513.98 "/>
<polygon class="st226" points="425.91,518.69 450.67,526.59 442.51,514.96 "/>
<polygon class="st227" points="432.84,526.59 425.91,518.69 450.67,526.59 "/>
<polygon class="st228" points="421.87,528.61 425.91,518.69 432.84,526.59 "/>
<polygon class="st229" points="410.39,522.94 421.87,528.61 425.91,518.69 "/>
<polygon class="st230" points="412.93,535.01 410.39,522.94 421.87,528.61 "/>
<polygon class="st231" points="410.39,549.31 403.56,544.62 412.93,535.01 "/>
<polygon class="st232" points="400.08,523.7 403.56,544.62 412.93,535.01 "/>
<polygon class="st233" points="410.39,522.94 400.08,523.7 412.93,535.01 "/>
<polygon class="st232" points="403.56,544.62 404.68,565.26 410.39,549.31 "/>
<polygon class="st232" points="400.08,523.7 382.68,537.5 404.23,556.94 403.56,544.62 "/>
<polygon class="st234" points="376.23,532.7 382.68,537.5 400.08,523.7 "/>
<polygon class="st235" points="396.73,587.44 382.68,537.5 404.68,565.26 "/>
<polygon class="st232" points="376.23,532.7 356.99,554.92 391.76,569.76 "/>
<polygon class="st232" points="396.73,587.44 356.99,554.92 391.76,569.76 "/>
<polygon class="st232" points="396.73,605.86 406.67,593.73 356.99,554.92 "/>
<polygon class="st236" points="406.67,601.09 402.7,598.58 406.67,593.73 "/>
<polygon class="st236" points="402.7,607.54 402.7,598.58 406.67,601.09 "/>
<polygon class="st236" points="396.73,605.86 402.7,607.54 402.7,598.58 "/>
<polygon class="st237" points="392.92,616.37 388.65,613.37 402.7,607.54 "/>
<polygon class="st236" points="396.73,605.86 391.76,612.09 402.7,607.54 "/>
<polygon class="st232" points="356.99,554.92 360.06,592.78 396.73,605.86 "/>
<polygon class="st238" points="388.65,613.37 375.45,612.94 396.73,605.86 391.76,612.09 "/>
<polygon class="st238" points="383.89,601.09 375.45,612.94 396.73,605.86 "/>
<polygon class="st239" points="377.5,610.06 369.7,604.66 383.89,601.09 "/>
<polygon class="st240" points="359.8,603.06 369.7,604.66 369.1,596 "/>
<polygon class="st241" points="383.89,601.09 369.1,596 369.7,604.66 "/>
<polygon class="st242" points="360.06,592.78 359.8,603.06 369.1,596 "/>
<polygon class="st243" points="349.88,605.86 359.8,603.06 360.06,592.78 "/>
<polygon class="st18" points="356.99,554.92 349.88,605.86 360.06,592.78 "/>
<polygon class="st18" points="324.19,605.86 349.88,605.86 356.99,554.92 "/>
<polygon class="st18" points="376.23,532.7 357.49,539.8 356.99,554.92 "/>
<polygon class="st244" points="349.5,545.59 356.99,554.92 357.49,539.8 "/>
<polygon class="st18" points="336.5,562.06 356.99,554.92 349.5,545.59 "/>
<polygon class="st18" points="324.19,605.86 336.5,562.06 356.99,554.92 "/>
<polygon class="st245" points="313.08,591.58 324.19,605.86 336.5,562.06 "/>
<polygon class="st246" points="383.89,616.37 388.65,613.37 392.92,616.37 "/>
<polygon class="st247" points="375.45,612.94 383.89,616.37 388.65,613.37 "/>
<polygon class="st248" points="362.12,614.55 375.45,612.94 383.89,616.37 "/>
<polygon class="st249" points="369.7,604.66 375.45,612.94 377.5,610.06 "/>
<polygon class="st250" points="349.88,605.86 347.15,608.42 351.1,610.76 "/>
<polygon class="st251" points="359.93,603 358.13,604.6 351.23,610.7 350.01,605.8 "/>
<polygon class="st251" points="370.89,606.31 356.99,605.52 359.8,603 369.7,604.6 "/>
<polygon class="st252" points="351.1,610.76 370.89,606.37 356.99,605.57 "/>
<path class="st253" d="M375.45,612.94c-0.13-0.19-24.36-2.18-24.36-2.18l19.79-4.39L375.45,612.94z"/>
<polygon class="st254" points="362.12,614.55 351.1,610.76 375.45,612.94 "/>
<polygon class="st255" points="341.86,612.5 351.1,610.76 362.12,614.55 "/>
<polygon class="st256" points="347.15,608.42 341.86,612.5 351.1,610.76 "/>
<polygon class="st257" points="324.19,605.86 341.86,612.5 349.88,605.86 "/>
<polygon class="st258" points="331.02,610.76 324.19,605.86 341.86,612.5 "/>
<polygon class="st258" points="323.22,607.71 324.19,605.86 331.02,610.76 "/>
<polygon class="st259" points="316.43,604.66 316.43,601.72 320.8,606.76 "/>
<polygon class="st260" points="324.19,605.86 320.8,606.76 323.22,607.71 "/>
<polygon class="st261" points="316.43,601.72 324.19,605.86 320.8,606.76 "/>
<polygon class="st262" points="319.54,599.88 316.43,601.72 323.97,605.57 "/>
<polygon class="st263" points="313.08,591.58 316.43,601.72 319.54,599.88 "/>
<polygon class="st264" points="313.48,601.05 316.43,601.72 313.08,591.58 "/>
<polygon class="st265" points="316.05,604.91 313.48,601.05 316.43,601.72 "/>
<polygon class="st266" points="419.88,653.18 400.35,653.5 411.26,659.73 "/>
<polygon class="st267" points="424.44,654.78 411.26,659.73 419.88,653.18 "/>
<polygon class="st268" points="381.83,654.35 400.35,653.34 411.26,659.57 "/>
<polygon class="st269" points="393.92,666 381.83,654.51 411.26,659.73 "/>
<polygon class="st270" points="372.54,671.81 381.83,654.51 393.92,666 "/>
<polygon class="st271" points="366.17,654.01 381.83,654.51 372.54,671.81 "/>
<polygon class="st272" points="352.97,671.81 366.17,654.01 372.54,671.81 "/>
<polygon class="st273" points="345.34,651.73 366.17,654.01 352.97,671.81 "/>
<polygon class="st274" points="333.02,648.81 345.34,651.73 352.97,671.81 "/>
<polygon class="st274" points="325.13,662.43 333.02,648.81 335.84,669 343.3,660.66 333.02,648.26 "/>
<polygon class="st0" points="320.31,648.68 324.46,647.65 329.54,654.51 "/>
<polygon class="st275" points="320.88,657.61 326.58,652.64 320.31,648.68 "/>
<polygon class="st275" points="325.13,662.43 326.58,652.64 329.54,654.82 "/>
<polygon class="st275" points="320.88,657.61 326.58,652.64 325.13,662.43 "/>
<polygon class="st276" points="324.46,647.96 324.92,648.02 333.02,649.12 329.54,654.82 318.12,647.87 "/>
<polygon class="st276" points="320.31,648.68 318.12,647.56 324.46,647.65 "/>
<polygon class="st277" points="319.38,637.67 318.12,647.56 315.09,642.57 "/>
<polygon class="st278" points="324.92,647.71 319.38,637.67 318.12,647.56 "/>
<polygon class="st279" points="334.5,637.46 324.92,647.71 319.38,637.67 "/>
<polygon class="st280" points="327.84,644.78 343.6,639.74 334.5,637.46 "/>
<polygon class="st281" points="333.02,648.26 335.04,642.61 327.84,644.78 "/>
<polygon class="st282" points="343.6,639.74 333.02,648.26 335.04,642.61 "/>
<polygon class="st283" points="351.43,648.12 335.43,646.32 345.34,651.73 "/>
<polygon class="st284" points="366.17,654.01 351.43,648.12 345.34,651.73 "/>
<polygon class="st285" points="373.38,650.15 351.43,648.12 366.17,654.01 "/>
<polygon class="st286" points="400.35,653.5 373.38,650.15 366.17,654.01 381.83,654.51 "/>
<polygon class="st287" points="351.43,648.12 343.6,639.74 335.43,646.32 "/>
<polygon class="st288" points="361,641.48 351.43,648.12 343.6,639.74 351.36,639.2 "/>
<polygon class="st289" points="373.38,650.15 361,641.48 351.43,648.12 "/>
<polygon class="st290" points="377.19,644.86 373.38,650.15 361,641.48 "/>
<polygon class="st291" points="393.42,648.81 373.38,650.15 377.19,644.86 "/>
<polygon class="st292" points="412.8,650.69 411.26,653.32 419.88,653.18 "/>
<polygon class="st293" points="393.42,648.81 411.26,653.32 412.8,650.69 "/>
<polygon class="st294" points="400.35,653.5 393.42,648.81 411.26,653.32 "/>
<polygon class="st295" points="373.38,650.15 393.42,648.81 400.35,653.5 "/>
<polygon class="st296" points="465.26,707.84 487.27,737.15 498.72,693.78 "/>
<polygon class="st296" points="441.03,714.35 487.27,737.15 465.26,707.84 "/>
<polygon class="st297" points="414.4,720.23 487.27,737.15 441.03,714.35 "/>
<polygon class="st297" points="399.75,722.36 487.27,737.15 414.4,720.23 "/>
<polygon class="st297" points="378.37,724.64 399.75,773.75 399.75,722.36 "/>
<polygon class="st297" points="487.27,737.15 477.44,778.33 436.08,728.69 "/>
<polygon class="st297" points="441.03,778.33 436.08,728.69 477.44,778.33 "/>
<polygon class="st297" points="399.75,722.36 441.03,778.33 436.08,728.69 "/>
<polygon class="st167" points="399.75,773.75 441.03,778.33 399.75,722.36 "/>
<polygon class="st298" points="353.97,721.62 399.75,773.75 378.37,724.64 "/>
<polygon class="st0" points="378.37,776.37 361,729.62 352.97,776.37 "/>
<polygon class="st298" points="399.75,773.75 378.37,776.37 361,729.62 "/>
<polygon class="st298" points="352.97,810.36 352.97,776.37 378.37,776.37 "/>
<polygon class="st298" points="329.01,826.05 352.97,810.36 352.97,776.37 "/>
<polygon class="st298" points="322.52,884.56 352.97,810.36 329.01,826.05 "/>
<polygon class="st0" points="355.73,943.07 361,932.94 322.52,884.56 344.44,923.17 "/>
<polygon class="st299" points="318.29,892.73 355.73,943.07 322.52,884.56 "/>
<polygon class="st297" points="441.03,778.33 417.54,824.75 399.75,773.75 "/>
<polygon class="st297" points="378.37,776.37 417.54,824.75 399.75,773.75 "/>
<polygon class="st297" points="352.97,810.36 378.37,776.37 417.54,824.75 "/>
<polygon class="st297" points="322.52,884.56 417.54,824.75 352.97,810.36 "/>
<polygon class="st297" points="477.44,778.33 417.54,824.75 441.03,778.33 "/>
<polygon class="st297" points="474.23,840.43 417.54,824.75 477.44,778.33 "/>
<polygon class="st300" points="414.4,843.7 439.01,830.69 417.54,824.75 "/>
<polygon class="st297" points="399.75,835.95 414.4,843.7 417.54,824.75 "/>
<polygon class="st297" points="322.52,884.56 414.4,843.7 399.75,835.95 "/>
<polygon class="st297" points="361,932.94 414.4,843.7 322.52,884.56 "/>
<polygon class="st301" points="414.4,954.18 361,932.94 355.73,943.07 "/>
<polygon class="st300" points="414.4,843.7 414.4,954.18 361,932.94 "/>
<polygon class="st297" points="474.23,840.43 414.4,843.7 439.01,830.69 "/>
<polygon class="st297" points="414.4,954.18 474.23,840.43 414.4,843.7 "/>
<polygon class="st302" points="426.7,957.78 414.4,954.18 474.23,840.43 "/>
<polygon class="st303" points="439.01,957.78 428.16,954.18 474.23,840.43 "/>
<polygon class="st304" points="454.95,957.78 439.01,957.78 474.23,840.43 "/>
<polygon class="st305" points="504.74,956.14 454.95,957.78 474.23,840.43 "/>
<polygon class="st305" points="513.98,950.59 504.74,956.14 494.26,916.41 "/>
<polygon class="st298" points="477.44,778.33 500.59,773.75 487.64,735.77 "/>
<polygon class="st298" points="474.23,840.43 500.59,773.75 477.44,778.33 "/>
<polygon class="st305" points="494.26,916.41 500.59,773.75 474.23,840.43 "/>
<polygon class="st305" points="513.98,950.59 537.53,940.46 500.59,773.75 "/>
<polygon class="st305" points="494.26,916.41 513.98,950.59 500.59,773.75 "/>
<polygon class="st306" points="517.59,646.28 500.59,773.75 487.64,735.77 "/>
<polygon class="st307" points="379,413.11 389.31,399.17 410.39,412.57 "/>
<polygon class="st308" points="415.51,409.47 410.39,412.57 444.29,447.82 "/>
<polygon class="st309" points="389.31,399.17 415.51,409.47 410.39,412.57 "/>
<polygon class="st310" points="402.41,378.25 389.31,399.17 415.51,409.47 "/>
<polygon class="st311" points="421.87,362.34 402.41,378.25 415.51,409.47 "/>
<polygon class="st312" points="446.2,352.75 421.87,362.34 415.51,409.47 "/>
<polygon class="st312" points="481.78,350.79 446.2,352.75 415.51,409.47 "/>
<polygon class="st308" points="445.05,447.82 415.51,409.47 481.78,350.79 "/>
<polygon class="st313" points="510.23,350.79 481.78,350.79 445.05,447.82 "/>
<polygon class="st314" points="468.6,473.53 445.05,447.82 547.97,362.34 "/>
<polygon class="st315" points="510.23,350.79 547.97,362.34 444.29,447.82 "/>
<polygon class="st314" points="468.6,473.53 592.4,384.79 547.97,362.34 "/>
<polygon class="st316" points="485.07,503.28 592.4,384.79 468.6,473.53 "/>
<polygon class="st317" points="498.85,547.67 640.32,440.35 592.4,384.79 "/>
<polygon class="st317" points="485.07,503.28 498.85,547.67 592.4,384.79 "/>
<polygon class="st318" points="663.34,511.83 640.32,440.35 498.85,547.67 "/>
<polygon class="st319" points="507.02,573.28 663.34,511.83 498.85,547.67 "/>
<polygon class="st320" points="513.98,624.54 663.34,511.83 507.02,573.28 "/>
<polygon class="st314" points="675.65,570.22 663.34,511.83 513.98,624.54 "/>
<polygon class="st319" points="517.59,646.28 675.65,570.22 513.98,624.54 "/>
<polygon class="st317" points="677.52,618.82 675.65,570.22 517.59,646.28 "/>
<polygon class="st321" points="691.17,649.33 677.52,618.82 517.59,646.28 "/>
<polygon class="st320" points="500.59,773.75 691.17,649.33 517.59,646.28 "/>
<polygon class="st322" points="537.53,940.46 691.17,649.33 500.59,773.75 "/>
<polygon class="st322" points="699.1,940.46 537.53,940.46 691.17,646.73 "/>
<polygon class="st316" points="714.15,793.37 699.1,940.46 691.17,649.33 "/>
<polygon class="st323" points="774.98,865.45 714.15,793.37 699.1,940.46 "/>
<polygon class="st322" points="772.57,927 774.98,865.45 699.1,940.46 "/>
<polygon class="st322" points="618.31,993.9 708.13,984.59 699.1,940.46 "/>
<path class="st322" d="M537.53,940.46c3.18,0,80.78,53.45,80.78,53.45l80.78-53.45H537.53z"/>
<polygon class="st322" points="504.99,955.01 618.56,992.77 538.67,939.11 "/>
<polygon class="st322" points="551.8,1031.01 504.99,955.01 618.56,992.77 "/>
<polygon class="st324" points="548.85,1055.61 550.56,1028.99 616.22,991.38 "/>
<polygon class="st324" points="648.31,1042.74 616.91,990.77 576.8,1029.01 "/>
<polygon class="st325" points="446.2,352.75 412.93,352.75 421.87,362.34 "/>
<polygon class="st312" points="402.41,378.25 389.31,357.55 412.93,352.75 421.87,362.34 "/>
<polygon class="st321" points="389.31,399.17 389.31,357.55 402.41,378.25 "/>
<polygon class="st326" points="355.78,413.99 389.31,399.17 379,413.11 "/>
<polygon class="st327" points="334.88,390.87 355.78,413.99 389.31,399.17 "/>
<polygon class="st328" points="389.31,357.55 334.88,390.87 389.31,399.17 "/>
<polygon class="st327" points="310.48,422.25 334.88,390.87 355.78,413.99 "/>
<polygon class="st329" points="322.59,442.53 310.48,422.25 355.78,413.99 "/>
<polygon class="st330" points="312.02,467.48 310.48,422.25 322.59,442.53 "/>
<polygon class="st331" points="297.09,460.67 310.48,422.25 312.02,467.48 "/>
<polygon class="st332" points="297.43,496.96 297.09,460.67 312.02,467.48 "/>
<polygon class="st333" points="294.89,515.52 281.75,505.91 297.09,460.67 297.43,496.96 "/>
<polygon class="st334" points="296.16,549.16 281.75,505.91 294.89,515.52 300.27,532.98 301.1,538.78 "/>
<polygon class="st329" points="290.44,562.06 281.75,505.91 296.16,549.16 "/>
<polygon class="st335" points="285.12,575.68 270.31,563.02 281.75,505.91 290.44,562.06 "/>
<polygon class="st336" points="288.07,605.86 270.31,563.02 285.12,575.68 286.32,597.03 "/>
<polygon class="st337" points="274.81,586.84 270.31,563.02 288.07,605.86 "/>
<polygon class="st338" points="296.49,635.38 296.49,699.01 322.52,692.42 "/>
<polygon class="st339" points="338.92,715.74 323.45,722.36 322.52,692.42 328.21,704.46 "/>
<polygon class="st340" points="308.66,695.93 323.45,722.36 322.52,692.42 "/>
<polygon class="st330" points="353.97,721.62 323.45,722.36 338.92,715.74 "/>
<polygon class="st330" points="352.97,776.37 323.45,722.36 353.97,721.62 "/>
<polygon class="st341" points="361,729.62 353.97,721.62 352.97,776.37 "/>
<polygon class="st339" points="329.01,826.05 323.45,722.36 352.97,776.37 "/>
<polygon class="st342" points="296.49,699.01 323.45,722.36 308.66,695.93 "/>
<polygon class="st318" points="329.01,826.05 296.49,699.01 323.45,722.36 "/>
<polygon class="st319" points="275.48,704.6 296.49,699.01 329.01,826.05 "/>
<polygon class="st343" points="244.96,728.69 260.22,711.95 286.1,728.69 "/>
<polygon class="st344" points="275.48,704.6 260.22,711.95 286.1,728.69 "/>
<polygon class="st317" points="233.99,738.24 244.96,728.69 286.1,728.69 "/>
<polygon class="st345" points="230.24,757.85 233.99,738.24 286.1,728.69 "/>
<polygon class="st314" points="299.3,758.64 230.24,757.85 286.1,728.69 "/>
<polygon class="st329" points="322.52,884.56 299.3,758.64 329.01,826.05 "/>
<polygon class="st334" points="286.1,815.81 299.3,758.64 322.52,884.56 "/>
<polygon class="st316" points="230.24,757.85 286.1,815.81 299.3,758.64 "/>
<polygon class="st346" points="217.93,795.76 230.24,757.85 286.1,815.81 "/>
<polygon class="st347" points="223.02,823.22 217.93,795.76 260.04,821.6 "/>
<polygon class="st348" points="286.1,815.81 260.04,821.6 217.93,795.76 "/>
<polygon class="st349" points="212.84,855.69 223.02,823.22 244.16,849.59 "/>
<polygon class="st349" points="260.04,821.6 244.16,849.59 223.02,823.22 "/>
<polygon class="st334" points="322.52,884.56 244.16,849.59 260.04,821.6 "/>
<polygon class="st350" points="286.1,815.81 260.04,821.6 322.52,884.56 "/>
<polygon class="st351" points="212.84,855.69 234.53,886.2 244.16,849.59 "/>
<polygon class="st334" points="322.52,884.56 234.53,886.2 244.16,849.59 "/>
<polygon class="st352" points="318.29,892.73 234.53,886.2 322.52,884.56 "/>
<polygon class="st353" points="355.73,943.07 304.31,938.49 318.29,892.73 "/>
<polygon class="st322" points="234.53,886.2 304.31,938.49 318.29,892.73 "/>
<polygon class="st354" points="278.52,959.58 304.31,938.49 234.53,886.2 250.2,912.34 "/>
<polygon class="st355" points="256.01,937.51 249.25,910.76 278.52,959.58 "/>
<polygon class="st339" points="355.73,943.07 306.19,983.11 304.31,938.49 "/>
<polygon class="st356" points="278.52,959.58 306.19,983.11 304.31,938.49 "/>
<polygon class="st357" points="381.88,984.75 355.73,943.07 306.19,983.11 "/>
<polygon class="st358" points="358.39,1002.23 381.88,984.75 306.19,983.11 "/>
<polygon class="st301" points="322.52,884.56 355.73,943.07 361,932.94 "/>
<polygon class="st298" points="361,729.62 352.97,776.37 378.37,776.37 "/>
<polygon class="st359" points="297.43,496.96 312.02,467.48 327.98,507.69 "/>
<polygon class="st360" points="381.3,468 341.1,512.17 396.96,513.98 "/>
<polygon class="st11" points="381.08,468.14 396.73,513.57 446.79,467.87 "/>
<polygon class="st11" points="474.68,505.11 446.79,467.87 406.34,504.86 "/>
<polygon class="st4" points="396.73,513.57 397.48,515.76 430.65,508.24 "/>
<polygon class="st361" points="455.86,504.86 474.68,505.11 478.49,509.42 "/>
<polygon class="st362" points="469.01,474.26 474.68,505.11 485.07,503.28 "/>
<polygon class="st363" points="474.68,505.11 478.49,509.42 485.07,503.28 "/>
<polygon class="st364" points="492.03,523.85 479.19,514.96 485.07,503.28 "/>
<polygon class="st223" points="492.26,527.63 493.29,544.16 498.85,547.67 "/>
<polygon class="st216" points="432.83,526.57 429.87,531.79 434.74,531.79 "/>
<polygon class="st32" points="428.6,543.01 428.55,543.08 424.91,548.35 427.85,550.11 "/>
<polygon class="st34" points="427.35,535.34 432.95,535.89 428.54,539.62 "/>
<polygon class="st235" points="404.23,556.94 404.47,565.85 382.68,537.5 "/>
<polygon class="st365" points="376.23,532.7 382.68,537.5 391.76,569.76 "/>
<polygon class="st77" points="342.25,538.99 338.9,540.31 338.67,544.79 "/>
<polygon class="st366" points="313.82,526.59 313.82,521.73 317.67,523.14 "/>
<path class="st366" d="M316.08,526.28v0.31V526.28z"/>
<polygon class="st366" points="313.82,526.59 317.67,523.14 316.08,526.28 "/>
<polygon class="st366" points="305.54,526.11 313.82,521.73 313.82,526.59 "/>
<polygon class="st366" points="304.66,523.96 303.48,526.37 305.54,526.11 313.82,521.73 "/>
<polygon class="st38" points="313.82,526.59 312.28,529.04 316.34,529.63 "/>
<polygon class="st38" points="313.64,526.69 313.79,526.6 312.28,529.04 "/>
<polygon class="st367" points="309.18,529.07 312.18,532.23 312.28,529.04 "/>
<polygon class="st367" points="314.02,529.75 312.28,529.04 312.19,532.23 "/>
<polygon class="st367" points="315.61,529.53 315.73,529.75 314.02,529.75 "/>
<polygon class="st367" points="312.28,529.04 314.02,529.75 315.61,529.53 "/>
<polyline class="st37" points="316.39,527.03 316.08,526.28 319.67,529.04 319.54,529.18 316.4,527.06 "/>
<polygon class="st37" points="315.61,526.35 316.08,526.28 316.41,527.09 "/>
<polygon class="st37" points="317.44,530.73 316.96,530.39 315.64,526.35 316.4,527.06 "/>
<polygon class="st37" points="315.64,529.53 316.34,529.63 316.99,530.41 "/>
<path class="st80" d="M308.87,529.04"/>
<polygon class="st80" points="309.22,529.15 308.87,528.98 307.63,532.35 307.88,532.38 "/>
<polygon class="st32" points="318.16,543.7 321.73,534.87 321.79,539.23 "/>
<polyline class="st32" points="319.28,531.69 320.77,530.41 321.12,530.81 320.94,531.25 317.8,537.07 "/>
<polygon class="st334" points="300.27,532.98 301.1,538.78 301.43,535.1 "/>
<polygon class="st23" points="328.48,519.25 327.75,519.17 325.57,522.94 326.5,523.23 328.75,519.51 "/>
<polygon class="st96" points="337.23,547.55 334.42,543.79 314.84,543.97 336.88,547.81 "/>
<polygon class="st95" points="330.61,549.16 330.92,549.47 309.99,555.3 "/>
<polygon class="st105" points="335.73,555.3 309.44,558.81 335.96,555.57 "/>
<polygon class="st172" points="452.85,593.73 455.86,669.65 487.27,684.52 "/>
<polygon class="st306" points="487.64,735.77 498.72,693.78 517.59,646.28 "/>
<polygon class="st162" points="436.08,654.78 438.59,661.48 434.63,657.31 "/>
<polygon class="st368" points="333.02,648.26 325.13,662.43 335.84,669 333.02,648.81 "/>
<polygon class="st273" points="352.97,671.81 343.3,660.66 335.84,669 "/>
<polygon class="st369" points="333.02,648.26 335.43,646.32 345.34,651.73 333.6,648.95 "/>
<polygon class="st276" points="323.28,647.94 324.46,647.65 324.92,647.71 325.05,648.04 "/>
<polygon class="st276" points="327.65,644.78 327.84,644.78 333.02,648.26 332.58,649.06 325.05,648.04 324.92,647.71 "/>
<polygon class="st276" points="331.69,640.47 327.65,644.78 327.84,644.78 "/>
<polygon class="st18" points="376.23,532.7 360.06,592.78 356.99,554.92 "/>
<polyline class="st370" points="412.09,1140.3 447.02,1142.24 417.41,1165.01 412.09,1140.3 "/>
<polyline class="st371" points="472.92,1130.2 447.73,1141.91 418.12,1164.68 480.15,1167.54 479.04,1154.67 472.92,1130.2 "/>
<polyline class="st372" points="417.41,1165.01 414.2,1192.14 480.15,1167.54 417.41,1165.01 "/>
<polyline class="st373" points="475.83,1192.79 479.45,1181.03 480.15,1167.54 414.2,1192.14 475.83,1192.79 "/>
<polyline class="st372" points="524.01,985.89 529.77,997.07 535.39,1004.36 524.01,985.89 "/>
<polyline class="st0" points="494.26,1002.23 515.11,1011.71 487.94,1027.56 494.26,1002.23 "/>
<polygon class="st374" points="168.48,759.37 233.99,738.24 230.24,757.85 "/>
<polygon class="st374" points="217.93,795.76 168.48,759.37 230.24,757.85 "/>
<polygon class="st375" points="146.6,815.81 168.48,759.37 217.93,795.76 "/>
<polygon class="st376" points="148.47,764.38 168.48,759.37 146.6,815.81 "/>
<polygon class="st377" points="217.93,795.76 223.02,823.22 146.6,815.81 "/>
<polygon class="st378" points="212.84,855.69 146.6,815.81 223.02,823.22 "/>
<polygon class="st379" points="153.55,884.56 212.84,855.69 146.6,815.81 "/>
<polygon class="st380" points="234.53,886.2 153.55,884.56 212.84,855.69 "/>
<polygon class="st381" points="249.25,910.76 153.55,884.56 234.53,886.2 "/>
<polygon class="st382" points="203.41,964.64 153.55,884.56 249.25,910.76 "/>
<polygon class="st383" points="256.01,937.51 203.41,964.64 249.25,910.76 "/>
<polygon class="st384" points="153.55,884.56 159.44,971.67 203.41,964.64 "/>
<polyline class="st385" points="221.77,955.17 256.01,937.51 245.77,981.48 203.41,964.64 221.77,955.17 "/>
<polygon class="st386" points="159.44,971.67 245.77,981.48 203.41,964.64 "/>
<polygon class="st387" points="278.52,959.58 245.77,981.48 256.01,937.51 "/>
<polygon class="st388" points="171.09,1033.12 184.54,997.82 159.44,971.67 "/>
<polygon class="st389" points="187.75,1062.7 186.83,1044.08 184.54,997.82 171.09,1033.12 "/>
<polygon class="st390" points="186.34,1098.49 187.75,1045.21 213.04,1100.29 "/>
<polygon class="st391" points="238.94,1132.32 213.04,1100.29 186.34,1098.49 "/>
<polygon class="st392" points="198.59,1139.68 238.94,1132.32 186.34,1098.49 "/>
<polygon class="st393" points="202,1181.52 238.94,1132.32 198.59,1139.68 "/>
<polygon class="st394" points="244.56,1178.08 238.94,1132.32 202,1181.52 225.24,1179.64 "/>
<polygon class="st395" points="204.61,1191.98 227.07,1179.5 202,1181.52 "/>
<polygon class="st396" points="244.56,1192.79 227.07,1179.5 204.61,1191.98 "/>
<polygon class="st397" points="244.56,1178.08 244.56,1192.79 227.07,1179.5 "/>
<polygon class="st398" points="184.54,997.82 245.77,981.48 159.44,971.67 "/>
<polygon class="st399" points="278.52,959.58 302.78,1066.3 184.54,997.82 245.77,981.48 "/>
<polygon class="st400" points="213.04,1100.29 302.78,1066.3 184.54,997.82 187.75,1045.21 "/>
<polygon class="st401" points="358.39,1002.23 302.78,1066.3 278.52,959.58 306.19,983.11 "/>
<polygon class="st402" points="238.94,1132.32 302.78,1066.3 213.04,1100.29 "/>
<polygon class="st403" points="285.52,1152.92 302.78,1066.3 238.94,1132.32 "/>
<polygon class="st404" points="344.04,1085.91 285.52,1152.92 302.78,1066.3 "/>
<polygon class="st405" points="344.53,1018.2 344.04,1085.91 302.78,1066.3 "/>
<polygon class="st406" points="338.52,1156.92 344.04,1085.91 285.52,1152.92 "/>
<polygon class="st407" points="387.7,1079.37 344.04,1085.91 338.63,1155.52 "/>
<polygon class="st408" points="407.98,1162.4 387.7,1079.37 338.52,1156.92 "/>
<polygon class="st409" points="347.31,998.17 338.63,1008.61 358.39,1002.23 "/>
<polygon class="st410" points="344.04,1012.94 338.63,1008.61 347.13,1005.86 "/>
<polygon class="st411" points="339.92,1017.27 344.04,1012.94 338.63,1008.61 "/>
<polygon class="st412" points="344.53,1018.2 339.92,1017.27 344.04,1012.94 "/>
<polygon class="st413" points="341.76,1021.39 339.92,1017.27 344.53,1018.2 "/>
<polygon class="st414" points="350.36,1021.39 344.53,1018.2 341.76,1021.39 "/>
<polygon class="st415" points="341.76,1021.39 352.57,1027.56 350.36,1021.39 "/>
<polygon class="st415" points="361,1022.01 350.36,1021.39 352.57,1027.56 "/>
<polygon class="st416" points="367.02,1021.39 361,1022.01 352.57,1027.56 363.16,1025.77 "/>
<polygon class="st417" points="415,977.31 401.05,980.09 414.4,986.79 "/>
<polygon class="st417" points="394.73,991.69 401.05,980.09 414.4,986.79 "/>
<polygon class="st417" points="385.79,987.52 401.05,980.09 394.73,991.69 "/>
<polygon class="st417" points="376.26,1000.84 395.23,991.69 385.79,987.52 "/>
<polygon class="st417" points="419.42,967.83 415,977.31 401.85,971.1 "/>
<polygon class="st417" points="401.05,980.09 401.85,971.1 415,977.31 "/>
<polygon class="st417" points="388.2,975.02 401.85,971.1 401.05,980.09 "/>
<polygon class="st417" points="377.55,977.84 388.2,975.02 401.05,980.09 "/>
<polygon class="st417" points="385.79,987.52 377.55,977.84 401.05,980.09 "/>
<polygon class="st418" points="358.39,1002.23 356.28,1018.2 369.23,1015.57 "/>
<polygon class="st417" points="385.79,987.52 381.88,984.75 358.39,1002.23 "/>
<polygon class="st417" points="376.26,1000.84 369.85,996.08 385.79,987.52 "/>
<polygon class="st417" points="358.39,1002.23 368.43,1006.24 369.85,996.08 "/>
<polygon class="st417" points="376.26,1000.84 368.43,1006.24 369.85,996.08 "/>
<polygon class="st418" points="358.39,1002.23 369.23,1015.57 368.43,1006.24 "/>
<polygon class="st419" points="376.26,1000.84 381.28,1010.22 394.73,991.69 "/>
<polygon class="st419" points="369.23,1015.57 376.26,1000.84 368.43,1006.24 "/>
<polygon class="st420" points="381.28,1010.22 369.23,1015.57 376.26,1000.84 "/>
<polygon class="st421" points="361,1022.01 369.23,1015.57 369.23,1015.57 381.28,1010.22 381.28,1010.22 373.15,1020.86 
	363.16,1025.77 "/>
<polygon class="st422" points="355.73,943.07 425.64,957.78 427.25,961.86 419.42,966.28 "/>
<polygon class="st422" points="410.64,969.46 419.42,966.28 356.28,943.95 "/>
<polygon class="st423" points="425.64,957.78 433.47,973.3 439.01,957.78 428.16,954.18 "/>
<polygon class="st424" points="427.25,961.86 433.47,973.3 419.42,966.28 "/>
<polygon class="st424" points="422.43,980.09 433.47,973.3 419.42,966.28 "/>
<polygon class="st424" points="415,977.31 419.42,966.28 422.43,980.09 "/>
<polygon class="st424" points="414.4,986.79 422.43,980.09 415,977.31 "/>
<polygon class="st424" points="419.42,994.18 414.4,986.79 422.43,980.09 "/>
<polygon class="st424" points="414.4,1004.36 419.42,994.18 414.4,986.79 "/>
<polygon class="st424" points="414.4,1015.57 414.4,1010.22 414.4,1004.36 419.42,994.18 "/>
<polygon class="st424" points="410.64,1017.27 414.4,1010.22 414.4,1015.57 "/>
<polygon class="st424" points="406.77,1033.45 408.86,1028.56 414.4,1015.57 410.64,1017.27 "/>
<polygon class="st424" points="401.85,1049.06 406.77,1046.36 414.4,1015.57 406.77,1033.45 "/>
<polygon class="st424" points="400.15,1076.76 406.77,1046.36 401.85,1049.06 "/>
<polygon class="st424" points="394.73,1081.99 400.15,1076.76 401.85,1049.06 "/>
<polygon class="st424" points="393.42,1102.8 400.15,1076.76 394.73,1081.99 "/>
<polygon class="st424" points="404.36,1147.6 412.19,1141.31 396.79,1125.62 "/>
<polygon class="st424" points="412.19,1164.19 412.19,1141.31 404.36,1147.6 "/>
<polygon class="st424" points="406.17,1178.57 412.19,1164.19 409.18,1157.81 "/>
<polygon class="st424" points="401.75,1192.14 406.17,1178.57 406.17,1192.14 "/>
<polygon class="st424" points="412.19,1164.19 406.17,1192.14 406.17,1178.57 "/>
<polygon class="st424" points="475.83,1192.79 479.45,1181.03 484.06,1184.46 "/>
<polygon class="st424" points="479.95,1192.79 484.06,1184.46 475.83,1192.79 "/>
<polygon class="st424" points="479.95,1171.06 486.87,1176.12 479.45,1181.03 "/>
<polygon class="st424" points="484.06,1184.46 486.87,1176.12 479.45,1181.03 "/>
<polygon class="st424" points="479.45,1163.05 479.95,1171.06 486.87,1176.12 "/>
<polygon class="st424" points="487.88,1159.62 479.45,1163.05 486.87,1176.12 "/>
<polygon class="st424" points="480.85,1147.6 479.45,1163.05 487.88,1159.62 "/>
<polygon class="st424" points="475.83,1147.6 480.85,1147.6 479.45,1163.05 "/>
<polygon class="st424" points="486.87,1147.6 480.85,1147.6 487.88,1159.62 "/>
<polygon class="st424" points="472.22,1130.53 475.83,1147.6 480.85,1147.6 "/>
<polygon class="st424" points="486.87,1147.6 483.16,1127.26 480.85,1147.6 "/>
<polygon class="st424" points="472.22,1130.53 472.22,1118.11 467.6,1102.8 464.39,1102.8 "/>
<polygon class="st424" points="460.57,1085.91 464.39,1102.8 467.6,1102.8 "/>
<polygon class="st424" points="468.3,1085.91 460.57,1085.91 467.6,1102.8 "/>
<polygon class="st424" points="461.78,1067.6 468.3,1085.91 460.57,1085.91 "/>
<polygon class="st424" points="465.79,1047.83 461.78,1067.6 470.81,1046.36 "/>
<polygon class="st424" points="432.32,1073.49 454.15,1056 433.47,1080.19 "/>
<polygon class="st425" points="422.43,980.09 421.43,1023.81 406.77,1046.36 "/>
<polygon class="st425" points="412.52,1054.86 406.77,1046.36 421.43,1023.81 "/>
<polygon class="st0" points="400.15,1076.76 412.52,1054.86 406.77,1046.36 "/>
<polyline class="st0" points="396.79,1125.62 393.42,1102.8 403.46,1089.78 "/>
<polygon class="st426" points="400.15,1076.76 404.36,1092.94 393.42,1102.8 "/>
<polygon class="st426" points="407.98,1119.09 404.36,1092.94 393.42,1102.8 "/>
<polygon class="st426" points="398.44,1123.35 393.42,1102.8 407.98,1119.09 "/>
<polygon class="st426" points="412.09,1140.3 407.88,1118.07 420.32,1136.41 "/>
<polygon class="st426" points="406.17,1192.14 414.2,1192.14 412.19,1164.19 "/>
<polygon class="st426" points="412.19,1141.31 417.41,1165.01 412.19,1164.19 "/>
<polygon class="st426" points="414.2,1192.14 417.41,1165.01 412.19,1164.19 "/>
<polygon class="st426" points="472.22,1130.53 472.22,1118.11 483.16,1127.26 480.85,1147.6 "/>
<polygon class="st426" points="467.6,1102.8 472.22,1118.11 483.16,1127.26 "/>
<polygon class="st426" points="468.3,1085.91 467.6,1102.8 470.81,1092.94 "/>
<polygon class="st426" points="461.78,1067.6 468.3,1085.91 475.38,1046.36 470.81,1046.36 "/>
<polygon class="st426" points="400.15,1076.76 412.52,1054.86 406.77,1046.36 "/>
<polygon class="st427" points="465.79,1047.83 468.3,1023.15 474.23,1027.56 475.38,1046.36 470.81,1046.36 "/>
<polygon class="st427" points="464.44,1009.4 468.3,1023.15 474.23,1027.56 "/>
<polygon class="st427" points="469.33,1007.14 474.23,1027.56 464.44,1009.4 "/>
<polygon class="st427" points="464.44,987.52 464.44,1009.4 469.33,1007.14 "/>
<polygon class="st427" points="454.15,984.75 464.44,987.52 464.44,1009.4 "/>
<polygon class="st427" points="454.15,971.83 454.15,984.75 464.44,987.52 "/>
<polygon class="st428" points="454.15,984.75 433.47,973.3 454.15,971.83 "/>
<polygon class="st428" points="439.01,957.78 454.15,971.83 433.47,973.3 "/>
<polygon class="st0" points="398.44,1123.35 407.98,1119.09 412.19,1141.31 "/>
<polygon class="st426" points="399.73,1128.62 398.44,1123.35 412.19,1141.31 "/>
<polygon class="st429" points="439.01,957.78 454.95,957.78 471.95,969.46 461.78,973.18 "/>
<polygon class="st429" points="474.23,984.75 471.95,969.46 461.78,973.18 "/>
<polygon class="st429" points="482.12,978.29 471.95,969.46 474.23,984.75 "/>
<polygon class="st429" points="501.66,996.08 474.23,984.75 482.12,978.29 "/>
<polygon class="st429" points="494.26,1002.23 501.66,996.08 474.23,984.75 "/>
<polygon class="st429" points="454.95,957.78 504.74,956.14 508.62,963.74 "/>
<polygon class="st429" points="464.44,964.3 508.62,963.74 454.95,957.78 "/>
<polygon class="st429" points="506.21,977.1 475.95,967.83 464.44,964.3 482.12,978.29 "/>
<polygon class="st430" points="479.85,964.3 475.95,967.83 487.41,971.1 508.62,963.74 "/>
<polygon class="st431" points="464.44,964.3 479.85,964.3 475.95,967.83 "/>
<polygon class="st432" points="508.62,963.74 504.74,965.48 512.37,971.1 513.98,969.59 "/>
<polygon class="st433" points="487.41,971.1 496.84,967.83 518.6,977.1 506.21,977.1 "/>
<polygon class="st0" points="508.62,972.47 512.37,971.1 518.6,977.1 "/>
<polygon class="st434" points="496.84,967.83 504.74,965.48 512.37,971.1 508.62,972.47 "/>
<polygon class="st435" points="482.12,978.29 501.66,996.08 506.21,977.1 "/>
<polygon class="st436" points="506.21,977.1 501.66,996.08 524.01,985.89 "/>
<polygon class="st437" points="518.6,977.1 506.21,977.1 524.01,985.89 "/>
<polygon class="st437" points="501.66,996.08 494.26,1002.23 507.55,1008.9 "/>
<polygon class="st437" points="513.98,1004.36 507.55,1008.9 501.66,996.08 "/>
<polygon class="st437" points="515.11,1011.71 513.98,1004.36 507.55,1008.9 "/>
<polygon class="st437" points="524.01,1006.24 513.98,1004.36 515.11,1011.71 "/>
<polygon class="st437" points="529.77,997.07 524.01,1006.24 535.39,1004.36 "/>
<polygon class="st437" points="515.11,1011.71 524.01,1006.24 535.39,1004.36 "/>
<polygon class="st438" points="524.01,985.89 501.66,996.08 513.98,1004.36 524.01,1006.24 529.77,997.07 "/>
<polygon class="st439" points="439.01,957.78 454.15,971.83 455.64,974.1 461.78,973.18 "/>
<polygon class="st440" points="461.78,973.18 455.64,974.1 459.29,978.29 465.79,976.91 "/>
<polygon class="st435" points="459.29,978.29 464.44,987.52 477.04,995.57 485.33,994.43 474.23,984.75 465.79,976.91 "/>
<polygon class="st435" points="471.95,1016.76 479.85,1008.9 489.35,1012.83 "/>
<polygon class="st435" points="475.38,1046.36 474.23,1027.56 471.95,1016.76 489.35,1011.71 487.94,1027.56 "/>
<polygon class="st435" points="441.7,1033.45 466.89,1019.56 468.3,1023.15 465.79,1047.83 455.48,1046.36 "/>
<polygon class="st435" points="422.17,991.38 436.62,985.89 457.05,991.69 464.44,1009.4 433.47,1027.56 422.17,1020.43 "/>
<polygon class="st435" points="436.08,1067.6 412.52,1054.86 415,1047.83 433.47,1037.64 450.39,1049.06 454.15,1056 "/>
<polygon class="st435" points="461.78,1067.6 454.15,1056 433.47,1080.19 460.57,1085.91 "/>
<polygon class="st435" points="414.1,1097.57 422.43,1092.94 445.45,1095.25 457.76,1104.98 460.57,1118.11 "/>
<polygon class="st435" points="407.64,1116.66 414.1,1097.57 460.57,1118.11 "/>
<polygon class="st435" points="420.42,1137.43 407.64,1116.66 459.29,1118.07 "/>
<polygon class="st435" points="456.96,1130.53 460.57,1124.59 459.29,1118.07 420.42,1137.43 "/>
<polygon class="st426" points="398.44,1123.35 407.98,1119.09 412.19,1141.31 "/>
<polygon class="st441" points="421.43,1023.81 433.47,1037.64 450.39,1049.06 454.15,1056 465.79,1047.83 455.48,1046.36 
	441.7,1033.45 433.47,1027.56 422.17,1020.43 "/>
<polygon class="st442" points="466.89,1019.56 441.7,1033.45 433.47,1027.56 464.44,1009.4 "/>
<polygon class="st443" points="415,1047.83 433.47,1037.64 421.43,1023.81 "/>
<polygon class="st444" points="461.78,1067.6 454.15,1056 465.79,1047.83 "/>
<polygon class="st441" points="454.15,1056 436.08,1067.6 432.32,1073.49 "/>
<polygon class="st441" points="412.52,1054.86 432.32,1073.49 436.08,1067.6 "/>
<polygon class="st441" points="472.14,999.94 479.85,1008.9 471.95,1016.76 469.33,1007.14 "/>
<polygon class="st441" points="410.64,1013.22 394.73,991.69 388.2,1001.16 "/>
<polygon class="st441" points="410.64,969.46 401.85,971.1 356.28,943.95 "/>
<polygon class="st441" points="489.35,1011.71 494.26,1002.23 485.33,994.43 "/>
<polygon class="st441" points="479.85,1008.9 485.33,994.43 489.35,1011.71 "/>
<polygon class="st441" points="472.14,999.94 477.04,995.57 485.33,994.43 479.85,1008.9 "/>
<polygon class="st441" points="464.44,987.52 466.89,997.07 472.14,999.94 477.04,995.57 "/>
<polygon class="st441" points="455.64,974.1 459.29,978.29 465.79,976.91 461.78,973.18 "/>
<polygon class="st441" points="457.76,1104.98 460.57,1085.91 433.47,1080.19 445.45,1095.25 "/>
<polygon class="st441" points="422.43,1092.94 433.47,1080.19 445.45,1095.25 "/>
<polygon class="st441" points="400.15,1076.76 422.43,1092.94 433.47,1080.19 "/>
<polygon class="st441" points="412.52,1054.86 400.15,1076.76 433.47,1080.19 432.32,1073.49 "/>
<path class="st0" d="M407.88,1118.07"/>
<polygon class="st445" points="412.09,1140.3 447.02,1142.24 420.42,1137.43 "/>
<polygon class="st446" points="456.96,1130.53 447.02,1142.24 420.42,1137.43 "/>
<polygon class="st447" points="472.22,1130.53 447.02,1142.24 456.96,1130.53 "/>
<polygon class="st448" points="459.29,1118.07 460.57,1124.59 456.96,1130.53 472.22,1130.53 "/>
<polygon class="st449" points="457.76,1104.98 459.29,1118.07 472.22,1130.53 464.39,1102.8 "/>
<polygon class="st450" points="460.57,1085.91 457.76,1104.98 464.39,1102.8 "/>
<polygon class="st451" points="388.2,1001.16 381.28,1010.22 401.85,1049.06 "/>
<polygon class="st451" points="410.64,1017.27 401.85,1049.06 388.2,1001.16 "/>
<polygon class="st451" points="414.4,986.79 394.73,991.69 410.64,1017.27 414.4,1010.22 "/>
<polygon class="st451" points="356.28,943.95 377.55,977.84 401.85,971.1 "/>
<polyline class="st452" points="400.15,1076.76 407.64,1116.66 414.1,1097.57 400.15,1076.76 422.43,1092.94 414.1,1097.57 
	400.15,1076.76 "/>
<polygon class="st452" points="433.47,973.3 422.43,980.09 436.62,985.89 "/>
<polygon class="st452" points="422.17,991.38 436.62,985.89 422.43,980.09 "/>
<polygon class="st452" points="457.05,991.69 436.62,985.89 433.47,973.3 "/>
<polygon class="st452" points="454.15,984.75 433.47,973.3 457.05,991.69 "/>
<polygon class="st435" points="466.89,997.07 472.14,999.94 469.33,1007.14 "/>
<polygon class="st453" points="489.35,1011.71 494.26,1002.23 487.94,1027.56 "/>
<polygon class="st435" points="513.98,969.59 508.62,972.47 518.6,977.1 "/>
<polygon class="st435" points="419.42,966.28 410.64,969.46 419.42,967.83 "/>
<polygon class="st435" points="425.64,957.78 414.4,954.18 355.73,943.07 "/>
<path class="st435" d="M412.52,1054.86l8.91-31.05L412.52,1054.86z"/>
<polygon class="st435" points="422.17,991.38 421.43,1023.81 422.17,1020.43 "/>
<polygon class="st435" points="455.64,974.1 458.59,978.6 464.44,987.52 "/>
<polygon class="st0" points="412.09,1140.3 420.32,1136.41 420.42,1137.43 "/>
<polygon class="st441" points="388.2,1001.16 410.64,1017.27 410.64,1013.22 "/>
<polygon class="st418" points="358.39,1002.23 356.28,1018.2 344.53,1018.2 "/>
<polygon class="st418" points="358.39,1002.23 347.13,1005.86 344.04,1012.94 344.53,1018.2 "/>
<polygon class="st418" points="356.28,1018.2 344.53,1018.2 350.36,1021.39 "/>
<polygon class="st418" points="369.23,1015.57 356.28,1018.2 350.36,1021.39 361,1022.01 "/>
<polygon class="st418" points="387.7,1079.37 352.57,1027.56 344.49,1023.15 344.04,1085.91 "/>
<polygon class="st454" points="352.57,1027.56 363.16,1025.77 373.25,1022.01 389.3,1049.06 "/>
<polygon class="st455" points="387.7,1079.37 389.3,1049.06 352.57,1027.56 "/>
<polygon class="st456" points="373.15,1020.86 381.28,1010.22 401.85,1049.06 "/>
<polygon class="st457" points="389.3,1049.06 401.85,1049.06 373.25,1022.01 "/>
<polygon class="st458" points="389.3,1049.06 401.85,1049.06 394.73,1081.99 387.7,1079.37 "/>
<polygon class="st458" points="393.42,1102.8 387.7,1079.37 394.73,1081.99 "/>
<polygon class="st459" points="238.94,1132.32 285.52,1152.92 244.56,1192.79 244.56,1178.08 "/>
<polygon class="st460" points="338.52,1156.92 285.52,1152.92 244.56,1192.79 "/>
<polygon class="st461" points="407.98,1162.4 244.56,1192.79 338.52,1156.92 "/>
<polygon class="st462" points="401.75,1192.14 407.98,1162.4 244.56,1192.79 "/>
<polygon class="st463" points="404.36,1147.6 407.98,1162.4 409.18,1157.81 "/>
<polygon class="st460" points="409.18,1157.81 407.98,1162.4 401.75,1192.14 406.17,1178.57 "/>
<polygon class="st464" points="148.47,764.38 100.96,784 146.6,815.81 "/>
<polygon class="st465" points="153.55,884.56 100.96,784 146.6,815.81 "/>
<polygon class="st466" points="43.41,878.57 153.55,884.56 100.96,784 78.2,804.7 "/>
<polygon class="st467" points="157.15,937.7 43.41,878.57 153.55,884.56 "/>
<polygon class="st468" points="31.09,964.64 43.41,878.57 157.15,937.7 "/>
<polygon class="st469" points="110.06,989.48 157.15,937.7 31.09,964.64 "/>
<polygon class="st470" points="30.02,1041.13 110.06,989.48 31.09,964.64 "/>
<polygon class="st471" points="97.74,1083.62 110.06,989.48 30.02,1041.13 "/>
<polygon class="st472" points="28.95,1132.32 97.74,1083.62 30.02,1041.13 "/>
<polygon class="st473" points="18.25,1191.98 28.95,1132.32 97.74,1083.62 "/>
<polygon class="st474" points="88.91,1172.85 18.25,1191.98 97.74,1083.62 "/>
<polygon class="st475" points="60.81,1192.79 88.91,1172.85 18.25,1191.98 "/>
<polygon class="st474" points="157.15,937.7 159.44,971.67 150.23,945.31 "/>
<polygon class="st334" points="110.06,989.48 150.23,945.31 159.44,971.67 "/>
<polygon class="st476" points="97.74,1083.62 164.92,1000.6 159.44,971.67 110.06,989.48 "/>
<polygon class="st477" points="151.55,1098.49 97.74,1083.62 164.92,1000.6 "/>
<polygon class="st478" points="88.91,1172.85 151.55,1098.49 97.74,1083.62 "/>
<polygon class="st479" points="61.61,1192.79 89.71,1172.85 148.07,1192.79 "/>
<polygon class="st340" points="151.55,1098.49 147.26,1192.79 88.91,1172.85 "/>
<polygon class="st480" points="535.39,1004.36 515.11,1011.71 550.56,1028.99 "/>
<polygon class="st481" points="487.94,1027.56 550.56,1028.99 515.11,1011.71 "/>
<polygon class="st482" points="548.85,1055.61 487.94,1027.56 550.56,1028.99 "/>
<polygon class="st483" points="475.38,1046.36 487.94,1027.56 504.51,1035.19 "/>
<polygon class="st484" points="468.3,1085.91 504.51,1035.19 475.38,1046.36 "/>
<polygon class="st485" points="470.81,1092.94 468.3,1085.91 504.51,1035.19 "/>
<polygon class="st486" points="467.6,1102.8 470.81,1092.94 483.16,1127.26 "/>
<polygon class="st487" points="548.85,1055.61 470.81,1092.94 504.51,1035.19 "/>
<polygon class="st488" points="483.16,1127.26 548.85,1055.61 470.81,1092.94 "/>
<polygon class="st489" points="487.88,1159.62 486.87,1147.6 483.16,1127.26 548.85,1055.61 "/>
<polygon class="st490" points="487.47,1166.32 487.88,1159.62 548.85,1055.61 509.83,1167.54 "/>
<polygon class="st491" points="549.64,1054.86 576.8,1029.01 509.83,1167.54 "/>
<polygon class="st492" points="648.31,1042.74 576.8,1029.01 557.74,1169.59 "/>
<polygon class="st492" points="509.83,1167.54 557.74,1169.59 576.8,1029.01 "/>
<polygon class="st493" points="669.36,1049.06 648.31,1042.74 557.74,1169.59 "/>
<polygon class="st494" points="639.65,1124.3 603.03,1153.61 557.74,1169.59 669.36,1049.06 "/>
<polygon class="st492" points="618.56,992.77 648.31,1042.74 669.36,1049.06 772.57,927 708.13,984.59 "/>
<polygon class="st495" points="487.47,1166.32 486.87,1176.12 483.66,1185.27 479.95,1192.79 513.77,1192.79 "/>
<polygon class="st496" points="557.74,1169.59 513.77,1192.79 487.47,1166.32 "/>
<polygon class="st497" points="603.03,1192.79 513.77,1192.79 557.74,1169.59 "/>
<polygon class="st498" points="603.03,1153.61 603.03,1192.79 557.74,1169.59 "/>
<polygon class="st499" points="639.65,1124.3 629.61,1192.79 603.03,1192.79 603.03,1153.61 "/>
<polygon class="st500" points="669.36,1049.06 681.54,1151.61 724.63,1067.06 "/>
<polygon class="st492" points="772.57,927 724.63,1067.06 669.36,1049.06 "/>
<polygon class="st492" points="699.1,940.46 772.57,927 708.13,984.59 "/>
<polygon class="st492" points="714.15,793.37 751.67,809.38 774.98,865.45 "/>
<polygon class="st492" points="796.64,862.17 774.98,865.45 751.67,809.38 "/>
<polygon class="st501" points="772.57,927 796.64,862.17 774.98,865.45 "/>
<polygon class="st492" points="813.9,943.4 772.57,927 796.64,862.17 "/>
<polygon class="st502" points="724.63,1067.06 813.9,943.4 772.57,927 "/>
<polygon class="st503" points="681.54,1151.61 695.57,1192.14 726.8,1064.06 "/>
<polygon class="st504" points="813.9,943.4 815.51,1192.79 724.63,1067.06 "/>
<polygon class="st505" points="695.57,1192.14 815.51,1192.79 724.63,1067.06 "/>
<polygon class="st481" points="494.26,1002.23 515.11,1011.71 487.94,1027.56 "/>
<polygon class="st462" points="244.56,1192.79 401.75,1192.14 406.17,1192.14 414.2,1192.14 475.83,1192.79 "/>
</svg>
